<svg width="57" height="53" viewBox="0 0 57 53" fill="none" xmlns="http://www.w3.org/2000/svg">
<rect width="57" height="53" rx="8" fill="#D2F3EB"/>
<path d="M31.8929 14.2756C32.8102 14.3609 33.7169 14.5422 34.6129 14.8196C35.5089 15.0756 36.3729 15.4062 37.2049 15.8116L35.6369 19.7476C35.0182 19.4489 34.3889 19.1822 33.7489 18.9476C33.1302 18.6916 32.5115 18.5102 31.8929 18.4036V33.6036C32.5755 33.5182 33.2795 33.3796 34.0049 33.1876C34.7515 32.9742 35.5302 32.7289 36.3409 32.4516V36.5156C35.5942 36.8142 34.8582 37.0596 34.1329 37.2516C33.4289 37.4222 32.6822 37.5396 31.8929 37.6036V39.9396H29.1089V37.6676C26.9755 37.5182 25.2155 36.9529 23.8289 35.9716C22.4635 34.9689 21.4502 33.6142 20.7889 31.9076C20.1275 30.2009 19.7969 28.2276 19.7969 25.9876C19.7969 23.8329 20.1489 21.9236 20.8529 20.2596C21.5782 18.5742 22.6342 17.2089 24.0209 16.1636C25.4075 15.1182 27.1035 14.4889 29.1089 14.2756V13.0596H31.8929V14.2756ZM29.1089 18.4036C28.1702 18.6169 27.3809 19.0649 26.7409 19.7476C26.1009 20.4302 25.6102 21.3049 25.2689 22.3716C24.9489 23.4169 24.7889 24.6329 24.7889 26.0196C24.7889 27.4276 24.9382 28.6649 25.2369 29.7316C25.5355 30.7769 26.0049 31.6196 26.6449 32.2596C27.2849 32.8996 28.1062 33.3262 29.1089 33.5396V18.4036Z" fill="#499581"/>
</svg>
