<svg width="57" height="54" viewBox="0 0 57 54" fill="none" xmlns="http://www.w3.org/2000/svg">
<rect y="0.5" width="57" height="53" rx="8" fill="#DAEEFC"/>
<path d="M45.3882 37.755C44.7167 37.0952 36.5792 33.9543 35.1026 33.3619C33.6338 32.7797 33.0478 31.1666 33.0478 31.1666C33.0478 31.1666 32.3867 31.5314 32.3867 30.5068C32.3867 29.481 33.0478 31.1666 33.709 27.2107C33.709 27.2107 35.5434 26.6971 35.1791 22.4502H34.7383C34.7383 22.4502 35.8403 17.9096 34.7383 16.3728C33.6325 14.836 33.1995 13.8114 30.7714 13.0766C28.3471 12.3432 29.2286 12.4893 27.4681 12.5644C25.705 12.6381 24.2375 13.5902 24.2375 14.1012C24.2375 14.1012 23.1356 14.1749 22.6974 14.6147C22.2566 15.0546 21.5229 17.1037 21.5229 17.6159C21.5229 18.1282 21.8897 21.5744 22.2566 22.304L21.8197 22.4463C21.4528 26.6945 23.2873 27.2094 23.2873 27.2094C23.9484 31.1653 24.6096 29.4797 24.6096 30.5055C24.6096 31.5301 23.9484 31.1653 23.9484 31.1653C23.9484 31.1653 23.3611 32.7771 21.8936 33.3606C20.4261 33.9466 12.2795 37.0952 11.6171 37.7537C10.9559 38.4264 11.0298 41.5 11.0298 41.5H45.9729C45.9729 41.5 46.0546 38.4238 45.3857 37.7524L45.3882 37.755ZM37.1756 40.6656H31.2614V39.0486H37.1756V40.6656Z" fill="#6DA4DE"/>
</svg>
