<svg width="57" height="53" viewBox="0 0 57 53" fill="none" xmlns="http://www.w3.org/2000/svg">
<rect width="57" height="53" rx="8" fill="#E8DCFF"/>
<path d="M22.8778 40.003C24.9822 40.003 26.9622 39.1833 28.4503 37.6952L39.6964 26.4507C41.1709 24.9702 41.9987 22.9657 41.9984 20.8762C41.9981 18.7867 41.1698 16.7825 39.6948 15.3024C38.9642 14.5687 38.0954 13.9871 37.1386 13.5913C36.1818 13.1954 35.1561 12.9931 34.1206 12.9961C32.0161 12.9961 30.0378 13.8159 28.5496 15.304L17.3036 26.5484C15.8286 28.0285 15.0003 30.0327 15 32.1223C14.9997 34.2118 15.8275 36.2163 17.302 37.6967C18.0328 38.4306 18.9019 39.0123 19.859 39.4082C20.816 39.804 21.8421 40.0062 22.8778 40.003ZM30.7771 17.533C31.215 17.0929 31.7359 16.744 32.3095 16.5064C32.8832 16.2688 33.4982 16.1473 34.1191 16.1489C35.3833 16.1489 36.5719 16.6408 37.4642 17.533C38.3499 18.4205 38.8475 19.6231 38.8478 20.877C38.8481 22.1309 38.3511 23.3337 37.4658 24.2217L32.9052 28.7806L26.2181 22.0904L30.7771 17.533Z" fill="#6F50C0"/>
</svg>
