<svg width="20" height="20" viewBox="0 0 20 20" fill="none" xmlns="http://www.w3.org/2000/svg">
<path d="M7 19.3057H13M7 19.3057V14.3057M7 19.3057H1.6C1.44087 19.3057 1.28826 19.2425 1.17574 19.1299C1.06321 19.0174 1 18.8648 1 18.7057V14.9057C1 14.7465 1.06321 14.5939 1.17574 14.4814C1.28826 14.3689 1.44087 14.3057 1.6 14.3057H7M13 19.3057V7.30566M13 19.3057H18.4C18.5591 19.3057 18.7117 19.2425 18.8243 19.1299C18.9368 19.0174 19 18.8648 19 18.7057V1.90566C19 1.74653 18.9368 1.59392 18.8243 1.4814C18.7117 1.36888 18.5591 1.30566 18.4 1.30566H13.6C13.4409 1.30566 13.2883 1.36888 13.1757 1.4814C13.0632 1.59392 13 1.74653 13 1.90566V7.30566M7 14.3057V7.90566C7 7.74653 7.06321 7.59392 7.17574 7.4814C7.28826 7.36888 7.44087 7.30566 7.6 7.30566H13" stroke="#7C7C7C" stroke-width="1.3"/>
</svg>
