<svg width="19" height="22" viewBox="0 0 19 22" fill="none" xmlns="http://www.w3.org/2000/svg">
<path d="M11.3265 19.5226H9.5C6.8552 19.5226 4.61067 18.6146 2.7664 16.7987C0.922133 14.9827 0 12.7729 0 10.1691C0 7.5654 0.921711 5.35388 2.76513 3.5346C4.60856 1.71531 6.85267 0.805664 9.49747 0.805664C10.8199 0.805664 12.057 1.0494 13.2088 1.53687C14.3606 2.02351 15.3668 2.69067 16.2273 3.53834C17.0878 4.38601 17.765 5.37551 18.259 6.50685C18.753 7.63818 19 8.85728 19 10.1641C19 12.5516 18.3776 14.7411 17.1329 16.7325C15.8882 18.724 14.3036 20.3794 12.3791 21.6988C12.266 21.7628 12.152 21.7982 12.0371 21.8048C11.924 21.8107 11.8155 21.7857 11.7116 21.73C11.6077 21.6742 11.525 21.6031 11.4633 21.5166C11.4017 21.4301 11.3683 21.3207 11.3633 21.1884L11.3265 19.5226ZM12.6667 19.9593C14.1656 18.7115 15.3849 17.2508 16.3248 15.5771C17.2647 13.9034 17.7342 12.0991 17.7333 10.1641C17.7333 7.89731 16.9362 5.97903 15.3419 4.4093C13.7476 2.83957 11.8003 2.05429 9.5 2.05346C7.19973 2.05263 5.25244 2.83791 3.65813 4.4093C2.06382 5.98069 1.26667 7.89897 1.26667 10.1641C1.26667 12.4293 2.06382 14.348 3.65813 15.9202C5.25244 17.4925 7.19973 18.2773 9.5 18.2748H12.6667V19.9593ZM9.5456 16.4917C9.804 16.4917 10.0236 16.4019 10.2043 16.2222C10.385 16.0425 10.4749 15.825 10.4741 15.5696C10.4732 15.3142 10.382 15.0979 10.2005 14.9207C10.0189 14.7436 9.79809 14.6545 9.538 14.6537C9.27791 14.6529 9.05836 14.7431 8.87933 14.9245C8.70031 15.1058 8.60995 15.3234 8.60827 15.5771C8.60658 15.8308 8.69778 16.0471 8.88187 16.2259C9.06596 16.4048 9.2872 16.4934 9.5456 16.4917ZM6.91473 7.2967C7.06167 7.35244 7.20818 7.34869 7.35427 7.28547C7.50036 7.22225 7.61984 7.12035 7.71273 6.97976C7.88584 6.69859 8.13158 6.47399 8.44993 6.30595C8.76829 6.13958 9.13478 6.05639 9.5494 6.05639C10.1709 6.05639 10.6763 6.21653 11.0656 6.5368C11.4549 6.85706 11.6491 7.29046 11.6483 7.837C11.6483 8.17474 11.5651 8.49085 11.3987 8.78533C11.2324 9.07897 10.9486 9.42336 10.5475 9.8185C10.0037 10.3401 9.61316 10.7876 9.37587 11.1611C9.13858 11.5346 9.02036 11.8973 9.0212 12.2492C9.0212 12.4131 9.07524 12.5528 9.18333 12.6685C9.29142 12.7841 9.42231 12.8423 9.576 12.8432C9.72969 12.844 9.85847 12.7858 9.96233 12.6685C10.0662 12.5537 10.1278 12.4118 10.1473 12.243C10.1886 11.9851 10.3301 11.6985 10.5716 11.3832C10.8131 11.068 11.107 10.7402 11.4532 10.4C11.9295 9.9308 12.2702 9.48867 12.4754 9.07357C12.6806 8.65763 12.7832 8.24212 12.7832 7.82702C12.7832 6.97103 12.4834 6.28266 11.8839 5.76191C11.2843 5.24117 10.5222 4.98079 9.59753 4.98079C8.97602 4.98079 8.40349 5.13011 7.87993 5.42875C7.35638 5.72739 6.96287 6.08343 6.6994 6.49687C6.60651 6.66573 6.57907 6.82712 6.61707 6.98101C6.65507 7.13491 6.75429 7.24014 6.91473 7.2967Z" fill="#7C7C7C"/>
</svg>
