<svg width="57" height="53" viewBox="0 0 57 53" fill="none" xmlns="http://www.w3.org/2000/svg">
<rect width="57" height="53" rx="8" fill="#FFF2E0"/>
<path fill-rule="evenodd" clip-rule="evenodd" d="M33.536 15.8933C33.6182 15.7612 33.7377 15.6566 33.8794 15.5924C34.0211 15.5283 34.1786 15.5076 34.3321 15.533L38.3769 16.2079C38.5826 16.2422 38.7662 16.3568 38.8874 16.5264C39.0087 16.696 39.0576 16.9068 39.0235 17.1125L38.3502 21.1589C38.3245 21.3123 38.2539 21.4546 38.1473 21.5679C38.0408 21.6812 37.903 21.7603 37.7515 21.7954C37.5999 21.8304 37.4414 21.8197 37.296 21.7647C37.1505 21.7096 37.0246 21.6127 36.9342 21.4862L35.8424 19.9601L30.2196 23.5534C29.9799 23.7068 29.6927 23.7684 29.4111 23.7268C29.1295 23.6851 28.8724 23.5431 28.6873 23.3268L25.5518 19.6612L19.6883 22.6739C19.41 22.8171 19.0863 22.8438 18.7883 22.7482C18.4903 22.6526 18.2425 22.4425 18.0994 22.1642C17.9563 21.8859 17.9296 21.5622 18.0251 21.2642C18.1207 20.9662 18.3308 20.7184 18.6091 20.5752L25.3032 17.1346C25.5396 17.0131 25.81 16.9751 26.0707 17.0264C26.3313 17.0778 26.5671 17.2157 26.7396 17.4177L29.8137 21.0126L34.4705 18.036L33.5628 16.7664C33.4725 16.6398 33.4218 16.4893 33.4171 16.3339C33.4123 16.1785 33.4537 16.0252 33.536 15.8933ZM23.2376 23.6179L18.672 26.2295C18.4917 26.3325 18.3417 26.4813 18.2373 26.6609C18.1329 26.8404 18.0777 27.0444 18.0773 27.2521V36.2982C18.0773 36.9496 18.606 37.4782 19.2573 37.4782H23.2376V23.6179ZM25.2041 37.4782H30.9748V26.7612L28.3805 28.0576L25.7878 23.5204C25.6566 23.2898 25.4515 23.1103 25.2057 23.0106L25.2041 37.4782ZM37.3496 37.4782H32.9413V25.778L36.8225 23.8366C37.0024 23.7468 37.2023 23.7044 37.4031 23.7135C37.604 23.7227 37.7992 23.783 37.9702 23.8887C38.1412 23.9945 38.2823 24.1422 38.3802 24.3178C38.4781 24.4934 38.5295 24.6912 38.5295 24.8922V36.2982C38.5295 36.6112 38.4052 36.9113 38.1839 37.1326C37.9626 37.3539 37.6625 37.4782 37.3496 37.4782Z" fill="#F0AC5C"/>
</svg>
