<svg width="22" height="28" viewBox="0 0 22 28" fill="none" xmlns="http://www.w3.org/2000/svg">
<path d="M11.7677 26.4091L11.7535 26.4117L11.6616 26.457L11.6357 26.4622L11.6176 26.457L11.5257 26.4117C11.5119 26.4074 11.5015 26.4095 11.4946 26.4182L11.4895 26.4311L11.4675 26.985L11.4739 27.0109L11.4869 27.0277L11.6215 27.1235L11.6409 27.1286L11.6564 27.1235L11.791 27.0277L11.8065 27.007L11.8117 26.985L11.7897 26.4324C11.7862 26.4186 11.7789 26.4108 11.7677 26.4091ZM12.1106 26.2629L12.0938 26.2655L11.8544 26.3858L11.8415 26.3988L11.8376 26.413L11.8609 26.9695L11.8673 26.985L11.8777 26.9941L12.1378 27.1144C12.1542 27.1187 12.1667 27.1153 12.1753 27.1041L12.1805 27.0859L12.1365 26.2913C12.1322 26.2758 12.1236 26.2663 12.1106 26.2629ZM11.1853 26.2655C11.1796 26.262 11.1728 26.2609 11.1663 26.2623C11.1598 26.2638 11.1541 26.2677 11.1504 26.2732L11.1426 26.2913L11.0986 27.0859C11.0995 27.1015 11.1068 27.1118 11.1206 27.117L11.14 27.1144L11.4002 26.9941L11.4131 26.9837L11.4183 26.9695L11.4403 26.413L11.4364 26.3975L11.4235 26.3845L11.1853 26.2655Z" fill="#E6E5E5"/>
<path d="M2.58824 17.6634C3.27468 17.6634 3.93301 17.9361 4.41839 18.4215C4.90378 18.9068 5.17647 19.5652 5.17647 20.2516C5.17647 20.9381 4.90378 21.5964 4.41839 22.0818C3.93301 22.5672 3.27468 22.8398 2.58824 22.8398C1.90179 22.8398 1.24346 22.5672 0.758076 22.0818C0.272688 21.5964 0 20.9381 0 20.2516C0 19.5652 0.272688 18.9068 0.758076 18.4215C1.24346 17.9361 1.90179 17.6634 2.58824 17.6634ZM11 17.6634C11.6864 17.6634 12.3448 17.9361 12.8302 18.4215C13.3155 18.9068 13.5882 19.5652 13.5882 20.2516C13.5882 20.9381 13.3155 21.5964 12.8302 22.0818C12.3448 22.5672 11.6864 22.8398 11 22.8398C10.3136 22.8398 9.65523 22.5672 9.16984 22.0818C8.68445 21.5964 8.41177 20.9381 8.41177 20.2516C8.41177 19.5652 8.68445 18.9068 9.16984 18.4215C9.65523 17.9361 10.3136 17.6634 11 17.6634ZM19.4118 17.6634C20.0982 17.6634 20.7565 17.9361 21.2419 18.4215C21.7273 18.9068 22 19.5652 22 20.2516C22 20.9381 21.7273 21.5964 21.2419 22.0818C20.7565 22.5672 20.0982 22.8398 19.4118 22.8398C18.7253 22.8398 18.067 22.5672 17.5816 22.0818C17.0962 21.5964 16.8235 20.9381 16.8235 20.2516C16.8235 19.5652 17.0962 18.9068 17.5816 18.4215C18.067 17.9361 18.7253 17.6634 19.4118 17.6634ZM2.58824 9.25161C3.27468 9.25161 3.93301 9.5243 4.41839 10.0097C4.90378 10.4951 5.17647 11.1534 5.17647 11.8398C5.17647 12.5263 4.90378 13.1846 4.41839 13.67C3.93301 14.1554 3.27468 14.4281 2.58824 14.4281C1.90179 14.4281 1.24346 14.1554 0.758076 13.67C0.272688 13.1846 0 12.5263 0 11.8398C0 11.1534 0.272688 10.4951 0.758076 10.0097C1.24346 9.5243 1.90179 9.25161 2.58824 9.25161ZM11 9.25161C11.6864 9.25161 12.3448 9.5243 12.8302 10.0097C13.3155 10.4951 13.5882 11.1534 13.5882 11.8398C13.5882 12.5263 13.3155 13.1846 12.8302 13.67C12.3448 14.1554 11.6864 14.4281 11 14.4281C10.3136 14.4281 9.65523 14.1554 9.16984 13.67C8.68445 13.1846 8.41177 12.5263 8.41177 11.8398C8.41177 11.1534 8.68445 10.4951 9.16984 10.0097C9.65523 9.5243 10.3136 9.25161 11 9.25161ZM19.4118 9.25161C20.0982 9.25161 20.7565 9.5243 21.2419 10.0097C21.7273 10.4951 22 11.1534 22 11.8398C22 12.5263 21.7273 13.1846 21.2419 13.67C20.7565 14.1554 20.0982 14.4281 19.4118 14.4281C18.7253 14.4281 18.067 14.1554 17.5816 13.67C17.0962 13.1846 16.8235 12.5263 16.8235 11.8398C16.8235 11.1534 17.0962 10.4951 17.5816 10.0097C18.067 9.5243 18.7253 9.25161 19.4118 9.25161ZM2.58824 0.839844C3.27468 0.839844 3.93301 1.11253 4.41839 1.59792C4.90378 2.08331 5.17647 2.74164 5.17647 3.42808C5.17647 4.11452 4.90378 4.77285 4.41839 5.25824C3.93301 5.74363 3.27468 6.01631 2.58824 6.01631C1.90179 6.01631 1.24346 5.74363 0.758076 5.25824C0.272688 4.77285 0 4.11452 0 3.42808C0 2.74164 0.272688 2.08331 0.758076 1.59792C1.24346 1.11253 1.90179 0.839844 2.58824 0.839844ZM11 0.839844C11.6864 0.839844 12.3448 1.11253 12.8302 1.59792C13.3155 2.08331 13.5882 2.74164 13.5882 3.42808C13.5882 4.11452 13.3155 4.77285 12.8302 5.25824C12.3448 5.74363 11.6864 6.01631 11 6.01631C10.3136 6.01631 9.65523 5.74363 9.16984 5.25824C8.68445 4.77285 8.41177 4.11452 8.41177 3.42808C8.41177 2.74164 8.68445 2.08331 9.16984 1.59792C9.65523 1.11253 10.3136 0.839844 11 0.839844ZM19.4118 0.839844C20.0982 0.839844 20.7565 1.11253 21.2419 1.59792C21.7273 2.08331 22 2.74164 22 3.42808C22 4.11452 21.7273 4.77285 21.2419 5.25824C20.7565 5.74363 20.0982 6.01631 19.4118 6.01631C18.7253 6.01631 18.067 5.74363 17.5816 5.25824C17.0962 4.77285 16.8235 4.11452 16.8235 3.42808C16.8235 2.74164 17.0962 2.08331 17.5816 1.59792C18.067 1.11253 18.7253 0.839844 19.4118 0.839844Z" fill="#E6E5E5"/>
</svg>
