<svg width="22" height="23" viewBox="0 0 22 23" fill="none" xmlns="http://www.w3.org/2000/svg">
<path d="M2.58824 17.5442C3.27468 17.5442 3.93301 17.8169 4.41839 18.3023C4.90378 18.7877 5.17647 19.446 5.17647 20.1325C5.17647 20.8189 4.90378 21.4772 4.41839 21.9626C3.93301 22.448 3.27468 22.7207 2.58824 22.7207C1.90179 22.7207 1.24346 22.448 0.758076 21.9626C0.272688 21.4772 0 20.8189 0 20.1325C0 19.446 0.272688 18.7877 0.758076 18.3023C1.24346 17.8169 1.90179 17.5442 2.58824 17.5442ZM11 17.5442C11.6864 17.5442 12.3448 17.8169 12.8302 18.3023C13.3155 18.7877 13.5882 19.446 13.5882 20.1325C13.5882 20.8189 13.3155 21.4772 12.8302 21.9626C12.3448 22.448 11.6864 22.7207 11 22.7207C10.3136 22.7207 9.65523 22.448 9.16984 21.9626C8.68445 21.4772 8.41177 20.8189 8.41177 20.1325C8.41177 19.446 8.68445 18.7877 9.16984 18.3023C9.65523 17.8169 10.3136 17.5442 11 17.5442ZM19.4118 17.5442C20.0982 17.5442 20.7565 17.8169 21.2419 18.3023C21.7273 18.7877 22 19.446 22 20.1325C22 20.8189 21.7273 21.4772 21.2419 21.9626C20.7565 22.448 20.0982 22.7207 19.4118 22.7207C18.7253 22.7207 18.067 22.448 17.5816 21.9626C17.0962 21.4772 16.8235 20.8189 16.8235 20.1325C16.8235 19.446 17.0962 18.7877 17.5816 18.3023C18.067 17.8169 18.7253 17.5442 19.4118 17.5442ZM2.58824 9.13247C3.27468 9.13247 3.93301 9.40516 4.41839 9.89054C4.90378 10.3759 5.17647 11.0343 5.17647 11.7207C5.17647 12.4071 4.90378 13.0655 4.41839 13.5509C3.93301 14.0363 3.27468 14.3089 2.58824 14.3089C1.90179 14.3089 1.24346 14.0363 0.758076 13.5509C0.272688 13.0655 0 12.4071 0 11.7207C0 11.0343 0.272688 10.3759 0.758076 9.89054C1.24346 9.40516 1.90179 9.13247 2.58824 9.13247ZM11 9.13247C11.6864 9.13247 12.3448 9.40516 12.8302 9.89054C13.3155 10.3759 13.5882 11.0343 13.5882 11.7207C13.5882 12.4071 13.3155 13.0655 12.8302 13.5509C12.3448 14.0363 11.6864 14.3089 11 14.3089C10.3136 14.3089 9.65523 14.0363 9.16984 13.5509C8.68445 13.0655 8.41177 12.4071 8.41177 11.7207C8.41177 11.0343 8.68445 10.3759 9.16984 9.89054C9.65523 9.40516 10.3136 9.13247 11 9.13247ZM19.4118 9.13247C20.0982 9.13247 20.7565 9.40516 21.2419 9.89054C21.7273 10.3759 22 11.0343 22 11.7207C22 12.4071 21.7273 13.0655 21.2419 13.5509C20.7565 14.0363 20.0982 14.3089 19.4118 14.3089C18.7253 14.3089 18.067 14.0363 17.5816 13.5509C17.0962 13.0655 16.8235 12.4071 16.8235 11.7207C16.8235 11.0343 17.0962 10.3759 17.5816 9.89054C18.067 9.40516 18.7253 9.13247 19.4118 9.13247ZM2.58824 0.720703C3.27468 0.720703 3.93301 0.993391 4.41839 1.47878C4.90378 1.96417 5.17647 2.6225 5.17647 3.30894C5.17647 3.99538 4.90378 4.65371 4.41839 5.1391C3.93301 5.62449 3.27468 5.89717 2.58824 5.89717C1.90179 5.89717 1.24346 5.62449 0.758076 5.1391C0.272688 4.65371 0 3.99538 0 3.30894C0 2.6225 0.272688 1.96417 0.758076 1.47878C1.24346 0.993391 1.90179 0.720703 2.58824 0.720703ZM11 0.720703C11.6864 0.720703 12.3448 0.993391 12.8302 1.47878C13.3155 1.96417 13.5882 2.6225 13.5882 3.30894C13.5882 3.99538 13.3155 4.65371 12.8302 5.1391C12.3448 5.62449 11.6864 5.89717 11 5.89717C10.3136 5.89717 9.65523 5.62449 9.16984 5.1391C8.68445 4.65371 8.41177 3.99538 8.41177 3.30894C8.41177 2.6225 8.68445 1.96417 9.16984 1.47878C9.65523 0.993391 10.3136 0.720703 11 0.720703ZM19.4118 0.720703C20.0982 0.720703 20.7565 0.993391 21.2419 1.47878C21.7273 1.96417 22 2.6225 22 3.30894C22 3.99538 21.7273 4.65371 21.2419 5.1391C20.7565 5.62449 20.0982 5.89717 19.4118 5.89717C18.7253 5.89717 18.067 5.62449 17.5816 5.1391C17.0962 4.65371 16.8235 3.99538 16.8235 3.30894C16.8235 2.6225 17.0962 1.96417 17.5816 1.47878C18.067 0.993391 18.7253 0.720703 19.4118 0.720703Z" fill="#E6E5E5"/>
</svg>
