<svg width="36" height="32" viewBox="0 0 36 32" fill="none" xmlns="http://www.w3.org/2000/svg">
<path fill-rule="evenodd" clip-rule="evenodd" d="M5.89292 31.1698C4.61189 31.0335 3.41434 30.4689 2.49401 29.5674C1.57367 28.666 0.984392 27.4804 0.821504 26.2025C0.410752 22.9028 0 19.4935 0 15.9994C0 13.4281 0.224544 10.9006 0.503856 8.43332C0.517621 8.31252 0.56344 8.19759 0.636563 8.10045C0.709686 8.00331 0.807455 7.92749 0.919738 7.88085C1.03202 7.8342 1.15474 7.81843 1.27517 7.83516C1.3956 7.8519 1.50936 7.90053 1.60467 7.97602L13.2892 17.1906C14.5571 18.19 16.1246 18.7335 17.739 18.7335C19.3535 18.7335 20.9209 18.19 22.1888 17.1906L33.8761 7.97602C33.9714 7.90125 34.0849 7.85322 34.205 7.83688C34.325 7.82054 34.4472 7.83648 34.5591 7.88306C34.6709 7.92963 34.7683 8.00516 34.8413 8.10188C34.9142 8.19859 34.9601 8.313 34.9742 8.43332C35.2535 10.9006 35.478 13.4281 35.478 15.9994C35.478 19.4935 35.0673 22.9055 34.6565 26.2025C34.4936 27.4804 33.9044 28.666 32.984 29.5674C32.0637 30.4689 30.8661 31.0335 29.5851 31.1698L29.2182 31.2082C25.5104 31.5943 21.6713 31.9968 17.739 31.9968C13.8067 31.9968 9.96758 31.5943 6.25986 31.2082L5.89292 31.1698ZM33.5667 3.09902C33.6623 3.23323 33.7015 3.39957 33.6759 3.56237C33.6503 3.72516 33.562 3.87144 33.4297 3.96982L20.0693 14.5015C19.4063 15.0271 18.5851 15.313 17.739 15.313C16.8929 15.313 16.0717 15.0271 15.4087 14.5015L2.04828 3.96982C1.91608 3.87144 1.82769 3.72516 1.8021 3.56237C1.7765 3.39957 1.81573 3.23323 1.91137 3.09902C2.38369 2.46739 2.98089 1.93967 3.66585 1.54867C4.35081 1.15767 5.10888 0.911747 5.89292 0.826196L6.25986 0.790597C9.96758 0.401752 13.8067 0.00195312 17.739 0.00195312C21.6713 0.00195312 25.5104 0.401752 29.2182 0.790597L29.5851 0.828934C30.3689 0.914153 31.1269 1.15965 31.8118 1.55017C32.4968 1.94069 33.0941 2.4679 33.5667 3.09902Z" fill="#0A51BA"/>
</svg>
