<svg width="18" height="27" viewBox="0 0 18 27" fill="none" xmlns="http://www.w3.org/2000/svg">
<path d="M12.096 1.216C13.0133 1.30133 13.92 1.48267 14.816 1.76C15.712 2.016 16.576 2.34667 17.408 2.752L15.84 6.688C15.2213 6.38934 14.592 6.12267 13.952 5.888C13.3333 5.632 12.7147 5.45067 12.096 5.344V20.544C12.7787 20.4587 13.4827 20.32 14.208 20.128C14.9547 19.9147 15.7333 19.6693 16.544 19.392V23.456C15.7973 23.7547 15.0613 24 14.336 24.192C13.632 24.3627 12.8853 24.48 12.096 24.544V26.88H9.312V24.608C7.17867 24.4587 5.41867 23.8933 4.032 22.912C2.66667 21.9093 1.65333 20.5547 0.992 18.848C0.330667 17.1413 0 15.168 0 12.928C0 10.7733 0.352 8.864 1.056 7.2C1.78133 5.51467 2.83733 4.14933 4.224 3.104C5.61067 2.05867 7.30667 1.42933 9.312 1.216V0H12.096V1.216ZM9.312 5.344C8.37333 5.55733 7.584 6.00533 6.944 6.688C6.304 7.37067 5.81333 8.24533 5.472 9.312C5.152 10.3573 4.992 11.5733 4.992 12.96C4.992 14.368 5.14133 15.6053 5.44 16.672C5.73867 17.7173 6.208 18.56 6.848 19.2C7.488 19.84 8.30933 20.2667 9.312 20.48V5.344Z" fill="#499581"/>
</svg>
