<svg width="33" height="29" viewBox="0 0 33 29" fill="none" xmlns="http://www.w3.org/2000/svg">
<path d="M18.1264 1.18909L31.8152 24.8979C32.0239 25.2594 32.1338 25.6695 32.1338 26.087C32.1338 26.5044 32.0239 26.9145 31.8152 27.2761C31.6065 27.6376 31.3063 27.9378 30.9447 28.1465C30.5832 28.3553 30.1731 28.4652 29.7557 28.4652H2.37811C1.96066 28.4652 1.55057 28.3553 1.18905 28.1465C0.827528 27.9378 0.527321 27.6376 0.3186 27.2761C0.109879 26.9145 -2.65126e-06 26.5044 0 26.087C2.65136e-06 25.6695 0.109889 25.2594 0.318615 24.8979L14.0074 1.18909C14.9222 -0.396363 17.21 -0.396363 18.1264 1.18909ZM16.0669 19.9798C15.6464 19.9798 15.2431 20.1469 14.9458 20.4442C14.6485 20.7415 14.4814 21.1448 14.4814 21.5653C14.4814 21.9858 14.6485 22.3891 14.9458 22.6864C15.2431 22.9837 15.6464 23.1507 16.0669 23.1507C16.4874 23.1507 16.8906 22.9837 17.188 22.6864C17.4853 22.3891 17.6523 21.9858 17.6523 21.5653C17.6523 21.1448 17.4853 20.7415 17.188 20.4442C16.8906 20.1469 16.4874 19.9798 16.0669 19.9798ZM16.0669 8.88169C15.6786 8.88174 15.3038 9.02431 15.0136 9.28236C14.7234 9.54041 14.538 9.89598 14.4925 10.2816L14.4814 10.4671V16.8089C14.4819 17.213 14.6366 17.6017 14.914 17.8956C15.1914 18.1894 15.5706 18.3662 15.974 18.3899C16.3774 18.4136 16.7746 18.2823 17.0845 18.023C17.3944 17.7636 17.5935 17.3957 17.6412 16.9944L17.6523 16.8089V10.4671C17.6523 10.0467 17.4853 9.64339 17.188 9.34606C16.8906 9.04873 16.4874 8.88169 16.0669 8.88169Z" fill="#F5C249"/>
</svg>
