<svg width="24" height="21" viewBox="0 0 24 21" fill="none" xmlns="http://www.w3.org/2000/svg">
<path d="M22.9153 19.5511H21.161V8.44096C21.161 8.0791 21.0173 7.73206 20.7614 7.47618C20.5055 7.22031 20.1585 7.07656 19.7966 7.07656H13.3644V2.20368C13.3643 1.95673 13.2972 1.71443 13.1702 1.50264C13.0432 1.29084 12.8611 1.11748 12.6433 1.00104C12.4256 0.884596 12.1803 0.829444 11.9336 0.84146C11.687 0.853477 11.4482 0.932211 11.2428 1.06927L3.44614 6.26668C3.25931 6.39134 3.10613 6.56019 3.00022 6.75825C2.8943 6.95632 2.83892 7.17746 2.83898 7.40207V19.5511H1.08475C0.929662 19.5511 0.780929 19.6127 0.671268 19.7224C0.561607 19.8321 0.5 19.9808 0.5 20.1359C0.5 20.291 0.561607 20.4397 0.671268 20.5494C0.780929 20.659 0.929662 20.7206 1.08475 20.7206H22.9153C23.0703 20.7206 23.2191 20.659 23.3287 20.5494C23.4384 20.4397 23.5 20.291 23.5 20.1359C23.5 19.9808 23.4384 19.8321 23.3287 19.7224C23.2191 19.6127 23.0703 19.5511 22.9153 19.5511ZM19.7966 8.24605C19.8483 8.24605 19.8979 8.26658 19.9344 8.30314C19.971 8.33969 19.9915 8.38927 19.9915 8.44096V19.5511H13.3644V8.24605H19.7966ZM4.00847 7.40207C4.00853 7.37005 4.01648 7.33854 4.03161 7.31033C4.04673 7.28211 4.06858 7.25805 4.09521 7.24029L11.8918 2.0419C11.9211 2.02233 11.9552 2.01108 11.9904 2.00935C12.0257 2.00763 12.0607 2.01548 12.0918 2.03208C12.1229 2.04868 12.1489 2.07341 12.1671 2.10363C12.1852 2.13384 12.1948 2.16842 12.1949 2.20368V19.5511H4.00847V7.40207ZM10.2458 10.0003V11.5596C10.2458 11.7147 10.1842 11.8634 10.0745 11.9731C9.96483 12.0827 9.8161 12.1444 9.66102 12.1444C9.50593 12.1444 9.3572 12.0827 9.24754 11.9731C9.13788 11.8634 9.07627 11.7147 9.07627 11.5596V10.0003C9.07627 9.8452 9.13788 9.69647 9.24754 9.58681C9.3572 9.47715 9.50593 9.41554 9.66102 9.41554C9.8161 9.41554 9.96483 9.47715 10.0745 9.58681C10.1842 9.69647 10.2458 9.8452 10.2458 10.0003ZM7.12712 10.0003V11.5596C7.12712 11.7147 7.06551 11.8634 6.95585 11.9731C6.84619 12.0827 6.69746 12.1444 6.54237 12.1444C6.38729 12.1444 6.23856 12.0827 6.1289 11.9731C6.01923 11.8634 5.95763 11.7147 5.95763 11.5596V10.0003C5.95763 9.8452 6.01923 9.69647 6.1289 9.58681C6.23856 9.47715 6.38729 9.41554 6.54237 9.41554C6.69746 9.41554 6.84619 9.47715 6.95585 9.58681C7.06551 9.69647 7.12712 9.8452 7.12712 10.0003ZM7.12712 15.4579V17.0172C7.12712 17.1723 7.06551 17.3211 6.95585 17.4307C6.84619 17.5404 6.69746 17.602 6.54237 17.602C6.38729 17.602 6.23856 17.5404 6.1289 17.4307C6.01923 17.3211 5.95763 17.1723 5.95763 17.0172V15.4579C5.95763 15.3028 6.01923 15.1541 6.1289 15.0444C6.23856 14.9348 6.38729 14.8732 6.54237 14.8732C6.69746 14.8732 6.84619 14.9348 6.95585 15.0444C7.06551 15.1541 7.12712 15.3028 7.12712 15.4579ZM10.2458 15.4579V17.0172C10.2458 17.1723 10.1842 17.3211 10.0745 17.4307C9.96483 17.5404 9.8161 17.602 9.66102 17.602C9.50593 17.602 9.3572 17.5404 9.24754 17.4307C9.13788 17.3211 9.07627 17.1723 9.07627 17.0172V15.4579C9.07627 15.3028 9.13788 15.1541 9.24754 15.0444C9.3572 14.9348 9.50593 14.8732 9.66102 14.8732C9.8161 14.8732 9.96483 14.9348 10.0745 15.0444C10.1842 15.1541 10.2458 15.3028 10.2458 15.4579Z" fill="#7C7C7C"/>
</svg>
