<svg width="20" height="20" viewBox="0 0 20 20" fill="none" xmlns="http://www.w3.org/2000/svg">
<path d="M7 19.0098H13M7 19.0098V14.0098M7 19.0098H1.6C1.44087 19.0098 1.28826 18.9466 1.17574 18.834C1.06321 18.7215 1 18.5689 1 18.4098V14.6098C1 14.4506 1.06321 14.298 1.17574 14.1855C1.28826 14.073 1.44087 14.0098 1.6 14.0098H7M13 19.0098V7.00977M13 19.0098H18.4C18.5591 19.0098 18.7117 18.9466 18.8243 18.834C18.9368 18.7215 19 18.5689 19 18.4098V1.60977C19 1.45064 18.9368 1.29802 18.8243 1.1855C18.7117 1.07298 18.5591 1.00977 18.4 1.00977H13.6C13.4409 1.00977 13.2883 1.07298 13.1757 1.1855C13.0632 1.29802 13 1.45064 13 1.60977V7.00977M7 14.0098V7.60977C7 7.45064 7.06321 7.29802 7.17574 7.1855C7.28826 7.07298 7.44087 7.00977 7.6 7.00977H13" stroke="#7C7C7C" stroke-width="1.3"/>
</svg>
