<svg width="22" height="23" viewBox="0 0 22 23" fill="none" xmlns="http://www.w3.org/2000/svg">
<path d="M1.22266 15.2061H8.55566C8.85135 15.2061 9.08983 15.3048 9.28516 15.5C9.48051 15.6954 9.57882 15.9338 9.57812 16.2285V21.1172C9.57812 21.413 9.47956 21.6523 9.28418 21.8477C9.08884 22.0429 8.85033 22.1403 8.55566 22.1396H1.22266C0.963669 22.1396 0.748354 22.0647 0.568359 21.915L0.494141 21.8467C0.299279 21.6511 0.200901 21.4124 0.200195 21.1172V16.2285C0.200237 15.9697 0.275283 15.7551 0.424805 15.5752L0.493164 15.5C0.664183 15.3296 0.86828 15.2329 1.11426 15.2109L1.22266 15.2061ZM20.7773 10.3174C21.0732 10.3174 21.3124 10.4159 21.5078 10.6113C21.7031 10.8067 21.8005 11.0452 21.7998 11.3398V21.1172C21.7998 21.4129 21.7021 21.6523 21.5068 21.8477C21.3115 22.043 21.073 22.1403 20.7783 22.1396H13.4443C13.1486 22.1396 12.9103 22.0418 12.7158 21.8467C12.521 21.6511 12.4226 21.4124 12.4219 21.1172V11.3398C12.4219 11.0811 12.4971 10.8664 12.6465 10.6865L12.7158 10.6113C12.8869 10.4409 13.0908 10.3441 13.3369 10.3223L13.4453 10.3174H20.7773ZM2.24414 20.0957H7.5332V17.251H2.24414V20.0957ZM14.4668 20.0957H19.7559V12.3623H14.4668V20.0957ZM1.22266 0.540039H8.55566C8.8144 0.54006 9.02937 0.615085 9.20996 0.764648L9.28516 0.833008C9.45618 1.00403 9.55243 1.20822 9.57324 1.4541L9.57812 1.56152V11.3398C9.57812 11.5985 9.50292 11.8136 9.35352 11.9941L9.28418 12.0703C9.08888 12.2655 8.85022 12.363 8.55566 12.3623H1.22266C0.96377 12.3623 0.74831 12.2872 0.568359 12.1377L0.494141 12.0693C0.299374 11.8739 0.200995 11.6349 0.200195 11.3398V1.5625C0.200195 1.30351 0.275135 1.0882 0.424805 0.908203L0.493164 0.833984C0.664186 0.663556 0.868266 0.566892 1.11426 0.544922L1.22266 0.540039ZM2.24414 10.3174H7.5332V2.58398H2.24414V10.3174ZM20.7773 0.540039C21.0363 0.540039 21.2519 0.61492 21.4326 0.764648L21.5078 0.833008C21.6788 1.00404 21.7751 1.2082 21.7959 1.4541L21.7998 1.56152V6.45117C21.7998 6.70989 21.7248 6.92489 21.5752 7.10547L21.5068 7.18066C21.3115 7.376 21.073 7.47431 20.7783 7.47363H13.4443C13.1857 7.47361 12.9709 7.39835 12.791 7.24902L12.7158 7.17969C12.5454 7.00862 12.4487 6.80466 12.4268 6.55859L12.4219 6.4502V1.5625C12.4219 1.30364 12.497 1.08814 12.6465 0.908203L12.7158 0.833984C12.8869 0.663456 13.0907 0.566818 13.3369 0.544922L13.4453 0.540039H20.7773ZM14.4668 5.42871H19.7559V2.58398H14.4668V5.42871Z" fill="#7C7C7C" stroke="white" stroke-width="0.4"/>
</svg>
