<svg width="22" height="23" viewBox="0 0 22 23" fill="none" xmlns="http://www.w3.org/2000/svg">
<path d="M11 14.5098C12.6569 14.5098 14 13.1666 14 11.5098C14 9.85291 12.6569 8.50977 11 8.50977C9.34315 8.50977 8 9.85291 8 11.5098C8 13.1666 9.34315 14.5098 11 14.5098Z" stroke="#7C7C7C" stroke-width="1.5"/>
<path d="M12.765 1.66177C12.398 1.50977 11.932 1.50977 11 1.50977C10.068 1.50977 9.60196 1.50977 9.23496 1.66177C8.99214 1.76228 8.77151 1.90966 8.58569 2.09549C8.39986 2.28132 8.25248 2.50195 8.15196 2.74477C8.05996 2.96777 8.02296 3.22877 8.00896 3.60777C8.00245 3.88169 7.92657 4.1495 7.7884 4.38612C7.65024 4.62274 7.45432 4.82046 7.21896 4.96077C6.97977 5.09454 6.71055 5.16544 6.43649 5.16684C6.16244 5.16824 5.89251 5.10009 5.65196 4.96877C5.31596 4.79077 5.07296 4.69277 4.83196 4.66077C4.30628 4.59164 3.77466 4.73407 3.35396 5.05677C3.03996 5.29977 2.80596 5.70277 2.33996 6.50977C1.87396 7.31677 1.63996 7.71977 1.58896 8.11477C1.5546 8.37522 1.57188 8.63989 1.63983 8.89366C1.70778 9.14743 1.82505 9.38533 1.98496 9.59377C2.13296 9.78577 2.33996 9.94677 2.66096 10.1488C3.13396 10.4458 3.43796 10.9518 3.43796 11.5098C3.43796 12.0678 3.13396 12.5738 2.66096 12.8698C2.33996 13.0728 2.13196 13.2338 1.98496 13.4258C1.82505 13.6342 1.70778 13.8721 1.63983 14.1259C1.57188 14.3796 1.5546 14.6443 1.58896 14.9048C1.64096 15.2988 1.87396 15.7028 2.33896 16.5098C2.80596 17.3168 3.03896 17.7198 3.35396 17.9628C3.5624 18.1227 3.8003 18.24 4.05407 18.3079C4.30784 18.3758 4.57251 18.3931 4.83296 18.3588C5.07296 18.3268 5.31596 18.2288 5.65196 18.0508C5.89251 17.9194 6.16244 17.8513 6.43649 17.8527C6.71055 17.8541 6.97977 17.925 7.21896 18.0588C7.70196 18.3388 7.98896 18.8538 8.00896 19.4118C8.02296 19.7918 8.05896 20.0518 8.15196 20.2748C8.25248 20.5176 8.39986 20.7382 8.58569 20.924C8.77151 21.1099 8.99214 21.2573 9.23496 21.3578C9.60196 21.5098 10.068 21.5098 11 21.5098C11.932 21.5098 12.398 21.5098 12.765 21.3578C13.0078 21.2573 13.2284 21.1099 13.4142 20.924C13.6001 20.7382 13.7474 20.5176 13.848 20.2748C13.94 20.0518 13.977 19.7918 13.991 19.4118C14.011 18.8538 14.298 18.3378 14.781 18.0588C15.0202 17.925 15.2894 17.8541 15.5634 17.8527C15.8375 17.8513 16.1074 17.9194 16.348 18.0508C16.684 18.2288 16.927 18.3268 17.167 18.3588C17.4274 18.3931 17.6921 18.3758 17.9459 18.3079C18.1996 18.24 18.4375 18.1227 18.646 17.9628C18.961 17.7208 19.194 17.3168 19.66 16.5098C20.126 15.7028 20.36 15.2998 20.411 14.9048C20.4453 14.6443 20.428 14.3796 20.3601 14.1259C20.2921 13.8721 20.1749 13.6342 20.015 13.4258C19.867 13.2338 19.66 13.0728 19.339 12.8708C19.1049 12.7282 18.9108 12.5285 18.7749 12.2905C18.639 12.0524 18.5658 11.7838 18.562 11.5098C18.562 10.9518 18.866 10.4458 19.339 10.1498C19.66 9.94677 19.868 9.78577 20.015 9.59377C20.1749 9.38533 20.2921 9.14743 20.3601 8.89366C20.428 8.63989 20.4453 8.37522 20.411 8.11477C20.359 7.72077 20.126 7.31677 19.661 6.50977C19.194 5.70277 18.961 5.29977 18.646 5.05677C18.4375 4.89686 18.1996 4.77958 17.9459 4.71163C17.6921 4.64369 17.4274 4.6264 17.167 4.66077C16.927 4.69277 16.684 4.79077 16.347 4.96877C16.1065 5.09991 15.8368 5.16796 15.5629 5.16656C15.2891 5.16516 15.02 5.09436 14.781 4.96077C14.5456 4.82046 14.3497 4.62274 14.2115 4.38612C14.0734 4.1495 13.9975 3.88169 13.991 3.60777C13.977 3.22777 13.941 2.96777 13.848 2.74477C13.7474 2.50195 13.6001 2.28132 13.4142 2.09549C13.2284 1.90966 13.0078 1.76228 12.765 1.66177Z" stroke="#7C7C7C" stroke-width="1.5"/>
</svg>
