<svg width="24" height="24" viewBox="0 0 24 24" fill="none" xmlns="http://www.w3.org/2000/svg">
<path d="M10.9971 11.3839C10.1126 11.3839 9.24796 11.1216 8.5125 10.6302C7.77705 10.1388 7.20384 9.44031 6.86534 8.62312C6.52685 7.80593 6.43829 6.90672 6.61085 6.03919C6.78341 5.17166 7.20935 4.37479 7.8348 3.74934C8.46025 3.12389 9.25712 2.69795 10.1247 2.52539C10.9922 2.35283 11.8914 2.44139 12.7086 2.77988C13.5258 3.11837 14.2242 3.69159 14.7157 4.42704C15.2071 5.1625 15.4694 6.02716 15.4694 6.91168C15.4694 8.09778 14.9982 9.23531 14.1595 10.074C13.3208 10.9127 12.1832 11.3839 10.9971 11.3839ZM10.9971 3.76834C10.3653 3.76834 9.74772 3.95569 9.2224 4.3067C8.69708 4.65772 8.28764 5.15662 8.04586 5.74033C7.80408 6.32404 7.74082 6.96633 7.86407 7.58599C7.98733 8.20566 8.29157 8.77485 8.73833 9.2216C9.18508 9.66835 9.75427 9.97259 10.3739 10.0959C10.9936 10.2191 11.6359 10.1559 12.2196 9.91407C12.8033 9.67229 13.3022 9.26285 13.6532 8.73753C14.0042 8.2122 14.1916 7.59459 14.1916 6.96279C14.1916 6.54329 14.109 6.1279 13.9484 5.74033C13.7879 5.35276 13.5526 5.00061 13.256 4.70398C12.9593 4.40734 12.6072 4.17204 12.2196 4.01151C11.832 3.85097 11.4166 3.76834 10.9971 3.76834ZM14.5557 12.157C11.0984 11.3785 7.48122 11.7532 4.25686 13.2239C3.8134 13.4357 3.43925 13.7692 3.17797 14.1854C2.91669 14.6017 2.77903 15.0836 2.78103 15.575V19.3764C2.78103 19.4603 2.79755 19.5434 2.82966 19.6209C2.86177 19.6984 2.90883 19.7688 2.96815 19.8282C3.02748 19.8875 3.09791 19.9345 3.17542 19.9667C3.25294 19.9988 3.33602 20.0153 3.41992 20.0153C3.50382 20.0153 3.58689 19.9988 3.66441 19.9667C3.74192 19.9345 3.81235 19.8875 3.87168 19.8282C3.93101 19.7688 3.97807 19.6984 4.01017 19.6209C4.04228 19.5434 4.05881 19.4603 4.05881 19.3764V15.575C4.05324 15.3263 4.12041 15.0814 4.25206 14.8703C4.38371 14.6592 4.57411 14.4911 4.79992 14.3867C6.74224 13.4896 8.85768 13.0294 10.9971 13.0386C12.1959 13.0372 13.3905 13.1788 14.5557 13.4603V12.157ZM14.6452 18.2328H18.568V19.1272H14.6452V18.2328Z" fill="#7C7C7C"/>
<path d="M21.6919 14.4374H18.3888V15.7152H21.053V21.0627H11.9999V15.7152H16.0249V15.9835C16.0249 16.153 16.0923 16.3155 16.2121 16.4353C16.3319 16.5551 16.4944 16.6224 16.6638 16.6224C16.8333 16.6224 16.9958 16.5551 17.1156 16.4353C17.2354 16.3155 17.3027 16.153 17.3027 15.9835V13.4983C17.3027 13.3288 17.2354 13.1663 17.1156 13.0465C16.9958 12.9267 16.8333 12.8594 16.6638 12.8594C16.4944 12.8594 16.3319 12.9267 16.2121 13.0465C16.0923 13.1663 16.0249 13.3288 16.0249 13.4983V14.4374H11.3611C11.1916 14.4374 11.0291 14.5047 10.9093 14.6246C10.7895 14.7444 10.7222 14.9069 10.7222 15.0763V21.7016C10.7222 21.871 10.7895 22.0335 10.9093 22.1534C11.0291 22.2732 11.1916 22.3405 11.3611 22.3405H21.6919C21.8613 22.3405 22.0238 22.2732 22.1437 22.1534C22.2635 22.0335 22.3308 21.871 22.3308 21.7016V15.0763C22.3308 14.9069 22.2635 14.7444 22.1437 14.6246C22.0238 14.5047 21.8613 14.4374 21.6919 14.4374Z" fill="#7C7C7C"/>
</svg>
