<svg width="18" height="23" viewBox="0 0 18 23" fill="none" xmlns="http://www.w3.org/2000/svg">
<path d="M8 10.7207H5M11 6.7207H5M1 18.3667V7.7747C1 4.9207 1 3.4947 1.879 2.6077C2.757 1.7207 4.172 1.7207 7 1.7207H11C13.828 1.7207 15.243 1.7207 16.121 2.6077C17 3.4937 17 4.9207 17 7.7747V18.3667C17 19.8777 17 20.6337 16.538 20.9317C15.783 21.4177 14.616 20.3977 14.029 20.0277C13.544 19.7217 13.302 19.5697 13.032 19.5607C12.742 19.5507 12.495 19.6977 11.971 20.0277L10.06 21.2327C9.544 21.5577 9.287 21.7207 9 21.7207C8.713 21.7207 8.456 21.5577 7.94 21.2327L6.03 20.0277C5.544 19.7217 5.302 19.5697 5.033 19.5607C4.742 19.5507 4.495 19.6977 3.971 20.0277C3.384 20.3977 2.217 21.4177 1.461 20.9317C1 20.6337 1 19.8787 1 18.3667Z" stroke="#7C7C7C" stroke-width="1.5" stroke-linecap="round" stroke-linejoin="round"/>
</svg>
