<svg width="214" height="223" viewBox="0 0 214 223" fill="none" xmlns="http://www.w3.org/2000/svg">
<path d="M106.515 21.6738C121.58 21.6738 136.384 25.7717 149.462 33.5623C162.541 41.3528 173.442 52.5661 181.087 66.0933C188.732 79.6205 192.856 94.993 193.052 110.691C193.247 126.388 189.507 141.867 182.202 155.596C174.897 169.326 164.279 180.83 151.398 188.972C138.518 197.114 123.821 201.611 108.762 202.018C93.7025 202.426 78.8017 198.73 65.5332 191.296C52.2648 183.862 41.0882 172.947 33.1089 159.631L77.1527 130.969C80.3444 136.296 84.8151 140.662 90.1224 143.635C95.4298 146.609 101.39 148.087 107.414 147.924C113.438 147.761 119.316 145.962 124.469 142.706C129.621 139.449 133.868 134.847 136.79 129.355C139.712 123.864 141.208 117.672 141.13 111.393C141.052 105.114 139.402 98.965 136.344 93.5541C133.286 88.1432 128.926 83.6579 123.694 80.5417C118.463 77.4255 112.541 75.7863 106.515 75.7863V21.6738Z" fill="#2F74DD"/>
<path d="M16.1689 170.655C6.09978 153.852 0.529413 134.547 0.0358995 114.743C-0.457614 94.9392 4.14372 75.3587 13.3623 58.0335C22.581 40.7083 36.081 26.2698 52.4612 16.2164C68.8415 6.16311 87.5051 0.861328 106.515 0.861328V67.4613C98.9111 67.4613 91.4457 69.582 84.8936 73.6034C78.3415 77.6247 72.9415 83.4001 69.254 90.3302C65.5666 97.2603 63.726 105.092 63.9235 113.014C64.1209 120.935 66.349 128.658 70.3767 135.379L16.1689 170.655Z" fill="#80C4FF"/>
<path d="M16.1689 170.655C6.09978 153.852 0.529413 134.547 0.0358995 114.743C-0.457614 94.9392 4.14372 75.3587 13.3623 58.0335C22.581 40.7083 36.081 26.2698 52.4612 16.2164C68.8415 6.16311 87.5051 0.861328 106.515 0.861328V67.4613C98.9111 67.4613 91.4457 69.582 84.8936 73.6034C78.3415 77.6247 72.9415 83.4001 69.254 90.3302C65.5666 97.2603 63.726 105.092 63.9235 113.014C64.1209 120.935 66.349 128.658 70.3767 135.379L16.1689 170.655Z" fill="#80C4FF"/>
<path d="M44.4257 21.6703C60.3255 9.7834 79.0602 2.6906 98.5738 1.17026C118.088 -0.350088 137.626 3.76077 155.045 13.0517C172.464 22.3427 187.091 36.4546 197.319 53.8388C207.548 71.2231 212.984 91.2078 213.03 111.6L149.121 111.757C149.103 103.6 146.928 95.606 142.837 88.6523C138.745 81.6986 132.895 76.0539 125.927 72.3375C118.959 68.6211 111.144 66.9768 103.339 67.5849C95.5331 68.193 88.0393 71.0302 81.6794 75.7849L44.4257 21.6703Z" fill="#69CE7D"/>
<path d="M197.305 53.8135C209.767 74.9812 215.058 99.8927 212.331 124.564C209.603 149.235 199.016 172.24 182.262 189.901L136.814 143.077C143.515 136.013 147.75 126.811 148.841 116.942C149.932 107.074 147.816 97.1093 142.831 88.6422L197.305 53.8135Z" fill="#FB6763"/>
<path d="M206.366 150.507C198.031 173.894 182.379 193.673 161.935 206.653C141.492 219.633 117.448 225.058 93.6826 222.053L101.382 155.938C110.888 157.14 120.506 154.97 128.683 149.778C136.861 144.586 143.122 136.674 146.456 127.32L206.366 150.507Z" fill="#F8DE41"/>
</svg>
