<svg width="29" height="30" viewBox="0 0 29 30" fill="none" xmlns="http://www.w3.org/2000/svg">
<path d="M21.7498 18.625H19.3332V21.0417H21.7498M21.7498 13.7917H19.3332V16.2083H21.7498M24.1665 23.4583H14.4998V21.0417H16.9165V18.625H14.4998V16.2083H16.9165V13.7917H14.4998V11.375H24.1665M12.0832 8.95833H9.6665V6.54167H12.0832M12.0832 13.7917H9.6665V11.375H12.0832M12.0832 18.625H9.6665V16.2083H12.0832M12.0832 23.4583H9.6665V21.0417H12.0832M7.24984 8.95833H4.83317V6.54167H7.24984M7.24984 13.7917H4.83317V11.375H7.24984M7.24984 18.625H4.83317V16.2083H7.24984M7.24984 23.4583H4.83317V21.0417H7.24984M14.4998 8.95833V4.125H2.4165V25.875H26.5832V8.95833H14.4998Z" fill="#6DA4DE"/>
</svg>
