<svg width="35" height="35" viewBox="0 0 35 35" fill="none" xmlns="http://www.w3.org/2000/svg">
<path d="M17.498 15.2143C20.3732 15.2143 22.704 12.9129 22.704 10.074C22.704 7.23502 20.3732 4.93359 17.498 4.93359C14.6228 4.93359 12.292 7.23502 12.292 10.074C12.292 12.9129 14.6228 15.2143 17.498 15.2143Z" fill="#6F50C0"/>
<path d="M9.60366 10.5885H10.1286V10.1182C10.1318 8.75063 10.5176 7.41125 11.2424 6.25156C11.9673 5.09187 13.0021 4.15815 14.23 3.55601C13.8665 2.71886 13.283 1.99578 12.5416 1.46359C11.8001 0.931401 10.9284 0.609966 10.0189 0.533427C9.10948 0.456887 8.19627 0.628101 7.37631 1.02888C6.55634 1.42967 5.86024 2.04505 5.36193 2.80968C4.86362 3.57431 4.58171 4.45963 4.54614 5.37161C4.51058 6.28358 4.72268 7.18817 5.15993 7.98928C5.59718 8.79039 6.24325 9.45812 7.02951 9.92154C7.81578 10.385 8.71288 10.6268 9.62553 10.6213L9.60366 10.5885ZM24.8935 10.0744V10.5447H25.4185C26.319 10.5357 27.2004 10.2841 27.97 9.81633C28.7395 9.34859 29.3687 8.68204 29.7914 7.88684C30.2141 7.09164 30.4145 6.1972 30.3717 5.29768C30.3289 4.39815 30.0444 3.5268 29.5481 2.77535C29.0518 2.02389 28.3621 1.42013 27.5516 1.0276C26.7411 0.635076 25.8398 0.468308 24.9425 0.544852C24.0452 0.621395 23.1851 0.938418 22.4528 1.46255C21.7205 1.98669 21.1431 2.69855 20.7812 3.5232C22.0095 4.12298 23.0455 5.05434 23.7722 6.21203C24.4989 7.36972 24.8873 8.70759 24.8935 10.0744ZM22.1921 15.7289C24.3665 16.16 26.469 16.8964 28.4371 17.9163C28.7145 18.0684 28.9656 18.2641 29.1808 18.4959H34.9993V14.7555C35.0004 14.612 34.9622 14.471 34.889 14.3476C34.8157 14.2243 34.7102 14.1233 34.5837 14.0555C31.749 12.5728 28.5957 11.8032 25.3966 11.8134H24.6748C24.2958 13.3541 23.424 14.7289 22.1921 15.7289ZM4.95545 20.6177C4.95345 20.0669 5.1022 19.526 5.3856 19.0537C5.66899 18.5814 6.07622 18.1956 6.56318 17.9381C8.53134 16.9183 10.6338 16.1819 12.8082 15.7507C11.5822 14.7593 10.711 13.3969 10.3255 11.8681H9.60366C6.40462 11.8579 3.2513 12.6275 0.416603 14.1102C0.290137 14.1779 0.184581 14.2789 0.111336 14.4023C0.0380898 14.5257 -6.28022e-05 14.6667 0.000998099 14.8102V21.7989H4.95545V20.6177ZM21.2843 26.9283H27.8028V28.4595H21.2843V26.9283Z" fill="#6F50C0"/>
<path d="M33.699 20.9894H26.1853V19.8957C26.1853 19.6057 26.0701 19.3275 25.865 19.1224C25.6599 18.9173 25.3817 18.802 25.0916 18.802C24.8016 18.802 24.5234 18.9173 24.3183 19.1224C24.1132 19.3275 23.9979 19.6057 23.9979 19.8957V20.9894H21.8762V17.8943C20.4374 17.5909 18.9717 17.4333 17.5014 17.424C14.0496 17.4109 10.6472 18.2446 7.59248 19.852C7.45644 19.9226 7.34256 20.0294 7.26342 20.1606C7.18429 20.2919 7.14298 20.4424 7.14406 20.5957V26.7313H14.9203V33.392C14.9203 33.682 15.0355 33.9602 15.2406 34.1653C15.4457 34.3704 15.7239 34.4857 16.0139 34.4857H33.699C33.9891 34.4857 34.2673 34.3704 34.4724 34.1653C34.6775 33.9602 34.7927 33.682 34.7927 33.392V22.0831C34.7927 21.7931 34.6775 21.5149 34.4724 21.3098C34.2673 21.1047 33.9891 20.9894 33.699 20.9894ZM32.6053 32.3201H17.1076V23.1768H23.9979V24.1721C23.9979 24.4622 24.1132 24.7403 24.3183 24.9455C24.5234 25.1506 24.8016 25.2658 25.0916 25.2658C25.3817 25.2658 25.6599 25.1506 25.865 24.9455C26.0701 24.7403 26.1853 24.4622 26.1853 24.1721V23.1768H32.6053V32.3201Z" fill="#6F50C0"/>
</svg>
