<svg width="23" height="25" viewBox="0 0 23 25" fill="none" xmlns="http://www.w3.org/2000/svg">
<path fill-rule="evenodd" clip-rule="evenodd" d="M10.0056 1.18549C10.5586 0.850777 11.1927 0.673828 11.8392 0.673828C12.4856 0.673828 13.1197 0.850777 13.6728 1.18549L14.9749 1.98196C16.8018 3.09867 18.8824 3.34733 20.9726 3.5979C21.6483 3.67908 22.3246 3.75962 22.9939 3.87021C22.9939 3.87021 23.0086 5.04253 22.9932 5.57436L22.8596 10.1454C22.7446 14.0657 21.0014 17.7828 18.0112 20.4841C16.6004 21.7581 15.1411 22.9093 13.4644 23.8656C12.9702 24.1449 12.4162 24.3015 11.8489 24.3223C11.2817 24.3431 10.7177 24.2274 10.2044 23.9851C8.2682 23.0646 6.55382 21.8974 4.98837 20.4841C1.99811 17.7828 0.254968 14.0657 0.140548 10.1454L0.0075907 5.58906C-0.00838974 5.04956 0.0075907 3.87021 0.0075907 3.87021C0.550926 3.80628 1.10449 3.75323 1.66253 3.70017C4.12543 3.46622 6.67016 3.2246 8.75784 1.94872L10.0056 1.18549ZM10.2159 10.9016V6.42708H12.7728V10.9016H17.2473V13.4585H12.7728V17.933H10.2159V13.4585H5.74137V10.9016H10.2159Z" fill="#499581"/>
</svg>
