<svg width="27" height="27" viewBox="0 0 27 27" fill="none" xmlns="http://www.w3.org/2000/svg">
<path d="M20.25 19.6875C20.25 20.0213 20.151 20.3475 19.9656 20.625C19.7802 20.9025 19.5166 21.1188 19.2083 21.2465C18.8999 21.3743 18.5606 21.4077 18.2333 21.3426C17.9059 21.2775 17.6053 21.1167 17.3693 20.8807C17.1333 20.6447 16.9725 20.3441 16.9074 20.0167C16.8423 19.6894 16.8757 19.3501 17.0035 19.0417C17.1312 18.7334 17.3475 18.4698 17.625 18.2844C17.9025 18.099 18.2287 18 18.5625 18C19.0101 18 19.4393 18.1778 19.7557 18.4943C20.0722 18.8107 20.25 19.2399 20.25 19.6875ZM8.4375 9C8.77126 9 9.09752 8.90103 9.37502 8.71561C9.65253 8.53018 9.86882 8.26663 9.99655 7.95828C10.1243 7.64993 10.1577 7.31063 10.0926 6.98328C10.0275 6.65594 9.86674 6.35526 9.63074 6.11926C9.39474 5.88326 9.09406 5.72254 8.76672 5.65742C8.43937 5.59231 8.10007 5.62573 7.79172 5.75345C7.48337 5.88118 7.21982 6.09747 7.03439 6.37498C6.84897 6.65248 6.75 6.97874 6.75 7.3125C6.75 7.76005 6.92779 8.18928 7.24426 8.50574C7.56072 8.82221 7.98995 9 8.4375 9ZM27 2.25V24.75C27 25.3467 26.7629 25.919 26.341 26.341C25.919 26.7629 25.3467 27 24.75 27H2.25C1.65326 27 1.08097 26.7629 0.65901 26.341C0.237053 25.919 0 25.3467 0 24.75V2.25C0 1.65326 0.237053 1.08097 0.65901 0.65901C1.08097 0.237053 1.65326 0 2.25 0H24.75C25.3467 0 25.919 0.237053 26.341 0.65901C26.7629 1.08097 27 1.65326 27 2.25ZM4.5 7.3125C4.5 8.09126 4.73093 8.85254 5.16359 9.50006C5.59625 10.1476 6.2112 10.6523 6.93068 10.9503C7.65017 11.2483 8.44187 11.3263 9.20567 11.1743C9.96947 11.0224 10.6711 10.6474 11.2217 10.0967C11.7724 9.54606 12.1474 8.84447 12.2993 8.08067C12.4513 7.31687 12.3733 6.52517 12.0753 5.80568C11.7773 5.0862 11.2726 4.47125 10.6251 4.03859C9.97754 3.60593 9.21626 3.375 8.4375 3.375C7.39321 3.375 6.39169 3.78984 5.65327 4.52827C4.91484 5.26669 4.5 6.26821 4.5 7.3125ZM22.5 19.6875C22.5 18.9087 22.2691 18.1475 21.8364 17.4999C21.4038 16.8524 20.7888 16.3477 20.0693 16.0497C19.3498 15.7517 18.5581 15.6737 17.7943 15.8257C17.0305 15.9776 16.3289 16.3526 15.7783 16.9033C15.2276 17.4539 14.8526 18.1555 14.7007 18.9193C14.5487 19.6831 14.6267 20.4748 14.9247 21.1943C15.2227 21.9138 15.7274 22.5288 16.3749 22.9614C17.0225 23.3941 17.7837 23.625 18.5625 23.625C19.6068 23.625 20.6083 23.2102 21.3467 22.4717C22.0852 21.7333 22.5 20.7318 22.5 19.6875ZM22.1709 4.82906C22.0665 4.72446 21.9424 4.64149 21.8058 4.58487C21.6692 4.52826 21.5228 4.49911 21.375 4.49911C21.2272 4.49911 21.0808 4.52826 20.9442 4.58487C20.8076 4.64149 20.6835 4.72446 20.5791 4.82906L4.82906 20.5791C4.61797 20.7902 4.49937 21.0765 4.49937 21.375C4.49937 21.6735 4.61797 21.9598 4.82906 22.1709C5.04016 22.382 5.32647 22.5006 5.625 22.5006C5.92353 22.5006 6.20984 22.382 6.42094 22.1709L22.1709 6.42094C22.2755 6.31646 22.3585 6.19238 22.4151 6.05581C22.4717 5.91924 22.5009 5.77284 22.5009 5.625C22.5009 5.47716 22.4717 5.33076 22.4151 5.19419C22.3585 5.05762 22.2755 4.93354 22.1709 4.82906Z" fill="#F0AC5C"/>
</svg>
