<svg width="21" height="20" viewBox="0 0 21 20" fill="none" xmlns="http://www.w3.org/2000/svg">
<path d="M10.4998 3.69141C11.5473 3.69141 12.552 4.10799 13.2927 4.84863C14.0334 5.58936 14.4499 6.59407 14.45 7.6416C14.45 8.68921 14.0335 9.6938 13.2927 10.4346C12.552 11.1753 11.5474 11.5918 10.4998 11.5918C9.45222 11.5917 8.44751 11.1753 7.70679 10.4346C6.96614 9.69382 6.54956 8.68911 6.54956 7.6416C6.54961 6.59407 6.96606 5.58936 7.70679 4.84863C8.44751 4.10791 9.45222 3.69146 10.4998 3.69141ZM10.4998 4.94141C9.78374 4.94146 9.09688 5.22612 8.59058 5.73242C8.08427 6.23872 7.79961 6.92559 7.79956 7.6416C7.79956 8.35759 8.08435 9.04445 8.59058 9.55078C9.09688 10.0571 9.78374 10.3417 10.4998 10.3418C10.8542 10.3418 11.2055 10.2723 11.533 10.1367C11.8605 10.001 12.1582 9.8015 12.4089 9.55078C12.6597 9.30006 12.8592 9.00238 12.9949 8.6748C13.1305 8.34733 13.2 7.99604 13.2 7.6416C13.1999 7.28711 13.1305 6.93591 12.9949 6.6084C12.8592 6.28082 12.6597 5.98314 12.4089 5.73242C12.1583 5.4818 11.8605 5.28311 11.533 5.14746C11.2054 5.01182 10.8543 4.94141 10.4998 4.94141Z" fill="#7C7C7C" stroke="#7C7C7C" stroke-width="0.3"/>
<path d="M10.5 0.366455C15.8297 0.366455 20.1504 4.68715 20.1504 10.0168C20.1504 15.3465 15.8297 19.6672 10.5 19.6672C5.17031 19.6672 0.849609 15.3465 0.849609 10.0168C0.849609 4.68715 5.17031 0.366455 10.5 0.366455ZM14.8584 15.2698C11.6157 14.8209 9.39131 14.7816 6.15625 15.2542C5.74032 15.3148 5.4248 15.6793 5.4248 16.1184L5.43652 16.26C5.45922 16.3999 5.51572 16.5329 5.60254 16.6467L5.93164 17.0657C7.291 17.9497 8.87817 18.4202 10.5 18.4172L10.7979 18.4124C12.2777 18.3624 13.7188 17.9184 14.9736 17.1262C15.1095 16.9672 15.2492 16.8029 15.3896 16.6321C15.5084 16.4867 15.5751 16.2993 15.5752 16.1057V16.1047C15.5763 15.9027 15.5038 15.7071 15.3721 15.554C15.2404 15.4009 15.0582 15.3 14.8584 15.2708V15.2698ZM10.5 1.61646C5.86087 1.61646 2.09961 5.37771 2.09961 10.0168C2.09678 12.085 2.86138 14.0761 4.23633 15.6116C4.43462 14.7961 5.10199 14.1452 5.97559 14.0178C9.34223 13.5258 11.6858 13.5706 15.0303 14.0334C15.8989 14.1536 16.5681 14.7978 16.7646 15.6106C18.139 14.0753 18.9032 12.0846 18.9004 10.0168C18.9004 5.37771 15.1391 1.61646 10.5 1.61646Z" fill="#7C7C7C" stroke="#7C7C7C" stroke-width="0.3"/>
</svg>
