<svg width="21" height="22" viewBox="0 0 21 22" fill="none" xmlns="http://www.w3.org/2000/svg">
<path d="M10.4282 14.0168C12.0851 14.0168 13.4282 12.6737 13.4282 11.0168C13.4282 9.35999 12.0851 8.01685 10.4282 8.01685C8.77137 8.01685 7.42822 9.35999 7.42822 11.0168C7.42822 12.6737 8.77137 14.0168 10.4282 14.0168Z" stroke="#7C7C7C" stroke-width="1.5"/>
<path d="M12.1932 1.16885C11.8262 1.01685 11.3602 1.01685 10.4282 1.01685C9.49618 1.01685 9.03018 1.01685 8.66318 1.16885C8.42037 1.26936 8.19974 1.41674 8.01391 1.60257C7.82808 1.7884 7.6807 2.00903 7.58019 2.25185C7.48819 2.47485 7.45118 2.73585 7.43718 3.11485C7.43067 3.38877 7.35479 3.65658 7.21663 3.8932C7.07846 4.12982 6.88254 4.32754 6.64718 4.46785C6.40799 4.60162 6.13877 4.67252 5.86472 4.67392C5.59066 4.67532 5.32073 4.60717 5.08018 4.47585C4.74418 4.29785 4.50118 4.19985 4.26018 4.16785C3.7345 4.09872 3.20288 4.24115 2.78219 4.56385C2.46819 4.80685 2.23418 5.20985 1.76818 6.01685C1.30218 6.82385 1.06818 7.22685 1.01718 7.62185C0.98282 7.8823 1.0001 8.14697 1.06805 8.40074C1.136 8.65451 1.25328 8.89241 1.41318 9.10085C1.56118 9.29285 1.76818 9.45385 2.08918 9.65585C2.56218 9.95285 2.86619 10.4588 2.86619 11.0168C2.86619 11.5748 2.56218 12.0808 2.08918 12.3768C1.76818 12.5798 1.56018 12.7408 1.41318 12.9328C1.25328 13.1413 1.136 13.3792 1.06805 13.633C1.0001 13.8867 0.98282 14.1514 1.01718 14.4118C1.06918 14.8058 1.30218 15.2098 1.76718 16.0168C2.23418 16.8238 2.46719 17.2268 2.78219 17.4698C2.99062 17.6298 3.22852 17.747 3.48229 17.815C3.73606 17.8829 4.00073 17.9002 4.26119 17.8658C4.50119 17.8338 4.74418 17.7358 5.08018 17.5578C5.32073 17.4265 5.59066 17.3584 5.86472 17.3598C6.13877 17.3612 6.40799 17.4321 6.64718 17.5658C7.13018 17.8458 7.41718 18.3608 7.43718 18.9188C7.45118 19.2988 7.48719 19.5588 7.58019 19.7818C7.6807 20.0247 7.82808 20.2453 8.01391 20.4311C8.19974 20.6169 8.42037 20.7643 8.66318 20.8648C9.03018 21.0168 9.49618 21.0168 10.4282 21.0168C11.3602 21.0168 11.8262 21.0168 12.1932 20.8648C12.436 20.7643 12.6566 20.6169 12.8425 20.4311C13.0283 20.2453 13.1757 20.0247 13.2762 19.7818C13.3682 19.5588 13.4052 19.2988 13.4192 18.9188C13.4392 18.3608 13.7262 17.8448 14.2092 17.5658C14.4484 17.4321 14.7176 17.3612 14.9917 17.3598C15.2657 17.3584 15.5356 17.4265 15.7762 17.5578C16.1122 17.7358 16.3552 17.8338 16.5952 17.8658C16.8556 17.9002 17.1203 17.8829 17.3741 17.815C17.6278 17.747 17.8657 17.6298 18.0742 17.4698C18.3892 17.2278 18.6222 16.8238 19.0882 16.0168C19.5542 15.2098 19.7882 14.8068 19.8392 14.4118C19.8735 14.1514 19.8563 13.8867 19.7883 13.633C19.7204 13.3792 19.6031 13.1413 19.4432 12.9328C19.2952 12.7408 19.0882 12.5798 18.7672 12.3778C18.5331 12.2352 18.339 12.0356 18.2032 11.7976C18.0673 11.5595 17.994 11.2909 17.9902 11.0168C17.9902 10.4588 18.2942 9.95285 18.7672 9.65685C19.0882 9.45385 19.2962 9.29285 19.4432 9.10085C19.6031 8.89241 19.7204 8.65451 19.7883 8.40074C19.8563 8.14697 19.8735 7.8823 19.8392 7.62185C19.7872 7.22785 19.5542 6.82385 19.0892 6.01685C18.6222 5.20985 18.3892 4.80685 18.0742 4.56385C17.8657 4.40394 17.6278 4.28666 17.3741 4.21871C17.1203 4.15077 16.8556 4.13348 16.5952 4.16785C16.3552 4.19985 16.1122 4.29785 15.7752 4.47585C15.5348 4.60699 15.265 4.67504 14.9912 4.67364C14.7173 4.67224 14.4483 4.60144 14.2092 4.46785C13.9738 4.32754 13.7779 4.12982 13.6397 3.8932C13.5016 3.65658 13.4257 3.38877 13.4192 3.11485C13.4052 2.73485 13.3692 2.47485 13.2762 2.25185C13.1757 2.00903 13.0283 1.7884 12.8425 1.60257C12.6566 1.41674 12.436 1.26936 12.1932 1.16885Z" stroke="#7C7C7C" stroke-width="1.5"/>
</svg>
