<svg width="35" height="35" viewBox="0 0 35 35" fill="none" xmlns="http://www.w3.org/2000/svg">
<path d="M17.497 15.2141C20.3722 15.2141 22.703 12.9127 22.703 10.0738C22.703 7.2348 20.3722 4.93338 17.497 4.93338C14.6218 4.93338 12.291 7.2348 12.291 10.0738C12.291 12.9127 14.6218 15.2141 17.497 15.2141Z" fill="#6F50C0"/>
<path d="M9.60268 10.5878H10.1277V10.1175C10.1308 8.74993 10.5167 7.41055 11.2415 6.25086C11.9663 5.09117 13.0011 4.15744 14.229 3.55531C13.8655 2.71815 13.2821 1.99508 12.5406 1.46289C11.7992 0.930699 10.9274 0.609264 10.018 0.532725C9.1085 0.456185 8.1953 0.6274 7.37533 1.02818C6.55537 1.42897 5.85926 2.04435 5.36095 2.80898C4.86264 3.57361 4.58073 4.45893 4.54517 5.3709C4.5096 6.28288 4.72171 7.18747 5.15896 7.98858C5.59621 8.78969 6.24227 9.45742 7.02854 9.92084C7.8148 10.3843 8.7119 10.6261 9.62456 10.6206L9.60268 10.5878ZM24.8926 10.0737V10.544H25.4175C26.318 10.535 27.1995 10.2834 27.969 9.81562C28.7385 9.34788 29.3678 8.68134 29.7904 7.88614C30.2131 7.09094 30.4136 6.1965 30.3707 5.29697C30.3279 4.39745 30.0434 3.5261 29.5471 2.77464C29.0508 2.02319 28.3611 1.41943 27.5506 1.0269C26.7401 0.634375 25.8388 0.467606 24.9415 0.54415C24.0442 0.620693 23.1842 0.937716 22.4519 1.46185C21.7196 1.98599 21.1421 2.69784 20.7803 3.5225C22.0085 4.12228 23.0445 5.05364 23.7712 6.21133C24.4979 7.36902 24.8863 8.70689 24.8926 10.0737ZM22.1911 15.7282C24.3655 16.1593 26.468 16.8957 28.4361 17.9156C28.7135 18.0677 28.9646 18.2634 29.1799 18.4952H34.9983V14.7548C34.9994 14.6113 34.9612 14.4703 34.888 14.3469C34.8147 14.2236 34.7092 14.1225 34.5827 14.0548C31.748 12.5721 28.5947 11.8025 25.3957 11.8127H24.6738C24.2948 13.3534 23.4231 14.7282 22.1911 15.7282ZM4.95447 20.617C4.95247 20.0662 5.10123 19.5253 5.38462 19.053C5.66802 18.5807 6.07525 18.1949 6.5622 17.9374C8.53037 16.9176 10.6328 16.1812 12.8072 15.75C11.5813 14.7586 10.7101 13.3962 10.3245 11.8674H9.60268C6.40365 11.8572 3.25032 12.6268 0.415627 14.1095C0.289161 14.1772 0.183605 14.2782 0.110359 14.4016C0.0371132 14.525 -0.00103936 14.666 2.15368e-05 14.8095V21.7982H4.95447V20.617ZM21.2834 26.9276H27.8018V28.4588H21.2834V26.9276Z" fill="#6F50C0"/>
<path d="M33.6976 20.9889H26.1839V19.8952C26.1839 19.6051 26.0686 19.3269 25.8635 19.1218C25.6584 18.9167 25.3802 18.8015 25.0902 18.8015C24.8001 18.8015 24.5219 18.9167 24.3168 19.1218C24.1117 19.3269 23.9965 19.6051 23.9965 19.8952V20.9889H21.8747V17.8937C20.4359 17.5903 18.9703 17.4327 17.4999 17.4234C14.0481 17.4104 10.6458 18.244 7.59101 19.8514C7.45497 19.922 7.34109 20.0288 7.26196 20.16C7.18282 20.2913 7.14151 20.4419 7.1426 20.5951V26.7308H14.9188V33.3914C14.9188 33.6814 15.034 33.9596 15.2391 34.1647C15.4442 34.3698 15.7224 34.4851 16.0125 34.4851H33.6976C33.9876 34.4851 34.2658 34.3698 34.4709 34.1647C34.676 33.9596 34.7913 33.6814 34.7913 33.3914V22.0825C34.7913 21.7925 34.676 21.5143 34.4709 21.3092C34.2658 21.1041 33.9876 20.9889 33.6976 20.9889ZM32.6039 32.3196H17.1062V23.1762H23.9965V24.1715C23.9965 24.4616 24.1117 24.7398 24.3168 24.9449C24.5219 25.15 24.8001 25.2652 25.0902 25.2652C25.3802 25.2652 25.6584 25.15 25.8635 24.9449C26.0686 24.7398 26.1839 24.4616 26.1839 24.1715V23.1762H32.6039V32.3196Z" fill="#6F50C0"/>
</svg>
