<svg width="35" height="30" viewBox="0 0 35 30" fill="none" xmlns="http://www.w3.org/2000/svg">
<path d="M34.3863 25.755C33.7148 25.0952 25.5773 21.9543 24.1007 21.3619C22.6319 20.7797 22.0459 19.1666 22.0459 19.1666C22.0459 19.1666 21.3847 19.5314 21.3847 18.5068C21.3847 17.481 22.0459 19.1666 22.707 15.2107C22.707 15.2107 24.5414 14.6971 24.1772 10.4502H23.7364C23.7364 10.4502 24.8383 5.90959 23.7364 4.37277C22.6306 2.83595 22.1976 1.81141 19.7694 1.07663C17.3451 0.343151 18.2267 0.489329 16.4662 0.564359C14.7031 0.638095 13.2356 1.5902 13.2356 2.10118C13.2356 2.10118 12.1336 2.17491 11.6954 2.61474C11.2547 3.05457 10.5209 5.10366 10.5209 5.61594C10.5209 6.12821 10.8878 9.57441 11.2547 10.304L10.8178 10.4463C10.4509 14.6945 12.2853 15.2094 12.2853 15.2094C12.9465 19.1653 13.6076 17.4797 13.6076 18.5055C13.6076 19.5301 12.9465 19.1653 12.9465 19.1653C12.9465 19.1653 12.3592 20.7771 10.8917 21.3606C9.42415 21.9466 1.27758 25.0952 0.615125 25.7537C-0.0460376 26.4264 0.027857 29.5 0.027857 29.5H34.971C34.971 29.5 35.0526 26.4238 34.3837 25.7524L34.3863 25.755ZM26.1736 28.6656H20.2594V27.0486H26.1736V28.6656Z" fill="#6DA4DE"/>
</svg>
