<svg width="23" height="27" viewBox="0 0 23 27" fill="none" xmlns="http://www.w3.org/2000/svg">
<path fill-rule="evenodd" clip-rule="evenodd" d="M12.2337 26.3118L12.22 26.3143L12.1322 26.3576L12.1074 26.3625L12.0901 26.3576L12.0022 26.3143C11.989 26.3101 11.9791 26.3122 11.9725 26.3204L11.9675 26.3328L11.9465 26.8626L11.9527 26.8873L11.9651 26.9034L12.0938 26.995L12.1124 27L12.1272 26.995L12.2559 26.9034L12.2708 26.8836L12.2757 26.8626L12.2547 26.3341C12.2514 26.3209 12.2444 26.3134 12.2337 26.3118ZM12.5617 26.1719L12.5456 26.1744L12.3166 26.2895L12.3042 26.3019L12.3005 26.3155L12.3228 26.8477L12.329 26.8626L12.3389 26.8712L12.5877 26.9863C12.6033 26.9905 12.6153 26.9872 12.6235 26.9764L12.6285 26.9591L12.5864 26.1991C12.5823 26.1843 12.574 26.1752 12.5617 26.1719ZM11.6767 26.1744C11.6712 26.1711 11.6647 26.17 11.6585 26.1714C11.6523 26.1728 11.6468 26.1765 11.6433 26.1818L11.6358 26.1991L11.5938 26.9591C11.5946 26.974 11.6016 26.9839 11.6148 26.9888L11.6334 26.9863L11.8821 26.8712L11.8945 26.8613L11.8995 26.8477L11.9205 26.3155L11.9168 26.3006L11.9044 26.2883L11.6767 26.1744Z" fill="#499581"/>
<path fill-rule="evenodd" clip-rule="evenodd" d="M2.8368 0C2.18026 0 1.55062 0.260808 1.08638 0.725049C0.622136 1.18929 0.361328 1.81894 0.361328 2.47547V23.3932C0.361328 23.572 0.396545 23.7491 0.464967 23.9142C0.533389 24.0794 0.633677 24.2295 0.760105 24.3559C0.886533 24.4824 1.03662 24.5827 1.20181 24.6511C1.367 24.7195 1.54404 24.7547 1.72284 24.7547H21.2791C21.4579 24.7547 21.6349 24.7195 21.8001 24.6511C21.9653 24.5827 22.1154 24.4824 22.2418 24.3559C22.3682 24.2295 22.4685 24.0794 22.5369 23.9142C22.6054 23.7491 22.6406 23.572 22.6406 23.3932V11.1396C22.6406 10.4831 22.3798 9.85344 21.9155 9.3892C21.4513 8.92496 20.8216 8.66415 20.1651 8.66415H19.5462C19.3821 8.66415 19.2247 8.72935 19.1086 8.84541C18.9926 8.96147 18.9274 9.11889 18.9274 9.28302V22.2792H17.6896V2.47547C17.6896 1.81894 17.4288 1.18929 16.9646 0.725049C16.5003 0.260808 15.8707 0 15.2142 0H2.8368ZM9.02548 3.71321C8.69721 3.71321 8.38239 3.84361 8.15027 4.07573C7.91815 4.30785 7.78774 4.62268 7.78774 4.95094V6.18868H6.55001C6.22174 6.18868 5.90692 6.31908 5.6748 6.5512C5.44268 6.78333 5.31227 7.09815 5.31227 7.42642C5.31227 7.75468 5.44268 8.06951 5.6748 8.30163C5.90692 8.53375 6.22174 8.66415 6.55001 8.66415H7.78774V9.90189C7.78774 10.2302 7.91815 10.545 8.15027 10.7771C8.38239 11.0092 8.69721 11.1396 9.02548 11.1396C9.35375 11.1396 9.66857 11.0092 9.90069 10.7771C10.1328 10.545 10.2632 10.2302 10.2632 9.90189V8.66415H11.501C11.8292 8.66415 12.144 8.53375 12.3762 8.30163C12.6083 8.06951 12.7387 7.75468 12.7387 7.42642C12.7387 7.09815 12.6083 6.78333 12.3762 6.5512C12.144 6.31908 11.8292 6.18868 11.501 6.18868H10.2632V4.95094C10.2632 4.62268 10.1328 4.30785 9.90069 4.07573C9.66857 3.84361 9.35375 3.71321 9.02548 3.71321ZM9.02548 14.8528C8.36895 14.8528 7.7393 15.1136 7.27506 15.5779C6.81082 16.0421 6.55001 16.6718 6.55001 17.3283V22.2792H11.501V17.3283C11.501 16.6718 11.2401 16.0421 10.7759 15.5779C10.3117 15.1136 9.68202 14.8528 9.02548 14.8528Z" fill="#499581"/>
</svg>
