<svg width="29" height="29" viewBox="0 0 29 29" fill="none" xmlns="http://www.w3.org/2000/svg">
<path fill-rule="evenodd" clip-rule="evenodd" d="M20.9286 2.21851L16.852 8.60887H23.2382L25.4837 5.15372C25.8729 4.54941 26.0061 3.81522 25.854 3.11268C25.702 2.41013 25.277 1.79678 24.6727 1.40754C24.0684 1.01831 23.3342 0.885082 22.6317 1.03717C21.9291 1.18925 21.3178 1.61419 20.9286 2.21851ZM2.21117 18.328L1.61046 12.9837C1.57811 12.6941 1.60724 12.4008 1.69597 12.1232C1.78469 11.8456 1.931 11.5898 2.12533 11.3726C2.31967 11.1554 2.55765 10.9817 2.82374 10.8627C3.08982 10.7438 3.378 10.6823 3.66946 10.6824H25.3325C25.6241 10.6823 25.9125 10.7438 26.1787 10.8629C26.445 10.9819 26.6831 11.1559 26.8774 11.3733C27.0718 11.5907 27.2181 11.8468 27.3066 12.1247C27.3952 12.4025 27.4241 12.696 27.3915 12.9858L26.7907 18.3301C26.6421 19.6513 26.1778 20.9173 25.4369 22.0212C24.696 23.1252 23.7003 24.0346 22.534 24.6728C22.8571 25.3087 23.085 26.0047 23.1968 26.7442C23.2329 26.9849 23.2166 27.2305 23.149 27.4642C23.0814 27.698 22.9642 27.9144 22.8053 28.0987C22.6464 28.283 22.4495 28.4308 22.2283 28.532C22.007 28.6332 21.7664 28.6855 21.5231 28.6852H7.47881C7.23548 28.6855 6.99494 28.6332 6.77365 28.532C6.55236 28.4308 6.35553 28.283 6.19662 28.0987C6.03771 27.9144 5.92046 27.698 5.85289 27.4642C5.78532 27.2305 5.76902 26.9849 5.8051 26.7442C5.91409 26.0228 6.13787 25.3235 6.46796 24.6728C5.30133 24.0345 4.30549 23.1247 3.56459 22.0203C2.82368 20.916 2.35946 19.6496 2.21117 18.328ZM15.7956 15.6869C15.7956 15.3436 15.6592 15.0143 15.4164 14.7715C15.1736 14.5287 14.8443 14.3923 14.501 14.3923C14.1576 14.3923 13.8283 14.5287 13.5855 14.7715C13.3427 15.0143 13.2063 15.3436 13.2063 15.6869V18.3881H10.5052C10.1618 18.3881 9.83251 18.5245 9.58972 18.7673C9.34693 19.0101 9.21053 19.3394 9.21053 19.6827C9.21053 20.0261 9.34693 20.3554 9.58972 20.5982C9.83251 20.841 10.1618 20.9774 10.5052 20.9774H13.2063V23.6806C13.2063 24.0239 13.3427 24.3532 13.5855 24.596C13.8283 24.8388 14.1576 24.9752 14.501 24.9752C14.8443 24.9752 15.1736 24.8388 15.4164 24.596C15.6592 24.3532 15.7956 24.0239 15.7956 23.6806V20.9794H18.4967C18.8401 20.9794 19.1694 20.843 19.4122 20.6002C19.655 20.3575 19.7914 20.0282 19.7914 19.6848C19.7914 19.3414 19.655 19.0121 19.4122 18.7693C19.1694 18.5266 18.8401 18.3902 18.4967 18.3902H15.7956V15.6828V15.6869Z" fill="#F0AC5C"/>
</svg>
