<svg width="155" height="27" viewBox="0 0 155 27" fill="none" xmlns="http://www.w3.org/2000/svg">
<path d="M11.088 21.3823C12.0369 21.3823 12.8728 21.2288 13.5957 20.9218C14.3412 20.5892 15.0303 20.0776 15.6629 19.3868L18.4756 22.8405C16.7586 25.0663 14.2509 26.1791 10.9524 26.1791C8.89657 26.1791 7.07791 25.7314 5.49647 24.836C3.91503 23.915 2.69507 22.6487 1.83657 21.0369C0.978077 19.4252 0.548828 17.596 0.548828 15.5493C0.548828 13.5283 0.96678 11.7119 1.80268 10.1001C2.66118 8.46281 3.82467 7.19644 5.29315 6.30103C6.78422 5.38004 8.45603 4.91954 10.3086 4.91954C12.0482 4.91954 13.6296 5.34166 15.0529 6.18591C16.4762 7.00457 17.6058 8.20698 18.4417 9.79313C19.3002 11.3537 19.7294 13.2085 19.7294 15.3575L6.24201 18.3123C6.62607 19.3356 7.22476 20.1031 8.03807 20.6148C8.87398 21.1265 9.89062 21.3823 11.088 21.3823ZM10.3086 9.44776C8.97564 9.44776 7.89123 9.93384 7.05532 10.906C6.21942 11.8782 5.77888 13.2213 5.73369 14.9353L14.6123 12.9782C14.3638 11.9037 13.8555 11.0467 13.0874 10.4071C12.3193 9.76755 11.393 9.44776 10.3086 9.44776Z" fill="#0A51BA"/>
<path d="M29.4166 26.1791C27.903 26.1791 26.4232 25.9745 24.9773 25.5651C23.5314 25.1302 22.3792 24.593 21.5207 23.9534L23.2829 19.6554C24.0962 20.2438 25.079 20.7299 26.2312 21.1137C27.3834 21.4718 28.513 21.6509 29.62 21.6509C31.8566 21.6509 32.9749 21.0241 32.9749 19.7706C32.9749 19.1821 32.6699 18.76 32.0599 18.5042C31.4499 18.2484 30.5124 18.0309 29.2472 17.8518C27.7561 17.596 26.5249 17.3018 25.5534 16.9692C24.5819 16.6366 23.7347 16.0482 23.0118 15.204C22.3115 14.3597 21.9613 13.1573 21.9613 11.5967C21.9613 10.292 22.2889 9.14076 22.944 8.14302C23.6218 7.11969 24.5932 6.32661 25.8584 5.76378C27.1461 5.20096 28.6598 4.91954 30.3994 4.91954C31.6871 4.91954 32.9636 5.08583 34.2287 5.41841C35.5165 5.72541 36.5783 6.16032 37.4142 6.72315L35.652 10.9827C34.048 9.95942 32.2971 9.44776 30.3994 9.44776C29.2698 9.44776 28.4226 9.62684 27.8578 9.985C27.293 10.3432 27.0106 10.8037 27.0106 11.3665C27.0106 12.0061 27.3156 12.4538 27.9256 12.7096C28.5355 12.9654 29.507 13.2085 30.8399 13.4387C32.331 13.7201 33.551 14.0271 34.4998 14.3597C35.4487 14.6667 36.2733 15.2423 36.9737 16.0866C37.674 16.9308 38.0242 18.1077 38.0242 19.6171C38.0242 20.8962 37.6853 22.0347 37.0075 23.0324C36.3298 24.0301 35.3357 24.8104 34.0254 25.3733C32.7377 25.9105 31.2014 26.1791 29.4166 26.1791Z" fill="#0A51BA"/>
<path d="M52.2656 24.8744C51.746 25.3093 51.1021 25.6419 50.334 25.8721C49.5885 26.0768 48.809 26.1791 47.9957 26.1791C45.8043 26.1791 44.1212 25.5523 42.9464 24.2988C41.7716 23.0452 41.1842 21.2032 41.1842 18.7728V0.65995H46.4708V5.68704H50.9779V10.292H46.4708V18.6961C46.4708 19.5659 46.6628 20.2438 47.0469 20.7299C47.4309 21.1904 47.9844 21.4207 48.7074 21.4207C49.5207 21.4207 50.2436 21.1648 50.8762 20.6532L52.2656 24.8744Z" fill="#0A51BA"/>
<path d="M60.3008 7.95114C60.9334 6.9534 61.7805 6.1987 62.8424 5.68704C63.9268 5.17537 65.1693 4.91954 66.5701 4.91954V10.4455C65.9827 10.3943 65.5873 10.3688 65.384 10.3688C63.8703 10.3688 62.6842 10.8548 61.8257 11.827C60.9672 12.7736 60.538 14.2062 60.538 16.125V25.8721H55.2515V5.22654H60.3008V7.95114Z" fill="#0A51BA"/>
<path d="M88.0508 5.22654V25.8721H83.0015V23.4929C81.6912 25.2837 79.7934 26.1791 77.3083 26.1791C75.5913 26.1791 74.0325 25.7442 72.6318 24.8744C71.2537 24.0046 70.1692 22.7638 69.3785 21.152C68.5878 19.5403 68.1924 17.6727 68.1924 15.5493C68.1924 13.4259 68.5878 11.5584 69.3785 9.94663C70.1692 8.33489 71.2537 7.09411 72.6318 6.22428C74.0325 5.35446 75.5913 4.91954 77.3083 4.91954C79.6353 4.91954 81.4539 5.75099 82.7643 7.4139V5.22654H88.0508ZM78.2233 21.2672C79.5562 21.2672 80.6632 20.7555 81.5443 19.7322C82.4254 18.6833 82.8659 17.289 82.8659 15.5493C82.8659 13.8097 82.4254 12.4282 81.5443 11.4049C80.6632 10.356 79.5562 9.8315 78.2233 9.8315C76.8678 9.8315 75.7495 10.356 74.8684 11.4049C73.9873 12.4282 73.5468 13.8097 73.5468 15.5493C73.5468 17.289 73.9873 18.6833 74.8684 19.7322C75.7495 20.7555 76.8678 21.2672 78.2233 21.2672Z" fill="#0A51BA"/>
<path d="M104.027 4.91954C106.286 4.91954 108.104 5.68704 109.483 7.22202C110.883 8.75701 111.584 11.0339 111.584 14.0527V25.8721H106.297V14.9737C106.297 13.3364 105.981 12.1212 105.348 11.3281C104.716 10.5095 103.801 10.1001 102.603 10.1001C101.27 10.1001 100.209 10.5734 99.4179 11.52C98.6271 12.441 98.2318 13.8225 98.2318 15.6645V25.8721H92.9452V5.22654H97.9945V7.64415C98.6949 6.77432 99.5647 6.10916 100.604 5.64866C101.643 5.16258 102.784 4.91954 104.027 4.91954Z" fill="#0A51BA"/>
<path d="M125.385 26.1791C123.442 26.1791 121.691 25.7314 120.132 24.836C118.596 23.915 117.387 22.6487 116.506 21.0369C115.648 19.4252 115.219 17.596 115.219 15.5493C115.219 13.5027 115.648 11.6735 116.506 10.0618C117.387 8.45002 118.596 7.19644 120.132 6.30103C121.691 5.38004 123.442 4.91954 125.385 4.91954C127.305 4.91954 128.977 5.38004 130.4 6.30103C131.846 7.19644 132.897 8.48839 133.552 10.1769L129.452 12.6712C128.503 10.7781 127.136 9.8315 125.351 9.8315C123.973 9.8315 122.832 10.3432 121.928 11.3665C121.025 12.3898 120.573 13.7841 120.573 15.5493C120.573 17.3146 121.025 18.7089 121.928 19.7322C122.832 20.7555 123.973 21.2672 125.351 21.2672C127.159 21.2672 128.525 20.3206 129.452 18.4274L133.552 20.9602C132.897 22.5975 131.846 23.8766 130.4 24.7976C128.977 25.7186 127.305 26.1791 125.385 26.1791Z" fill="#0A51BA"/>
<path d="M145.548 21.3823C146.497 21.3823 147.333 21.2288 148.056 20.9218C148.801 20.5892 149.49 20.0776 150.123 19.3868L152.935 22.8405C151.218 25.0663 148.711 26.1791 145.412 26.1791C143.356 26.1791 141.538 25.7314 139.956 24.836C138.375 23.915 137.155 22.6487 136.296 21.0369C135.438 19.4252 135.009 17.596 135.009 15.5493C135.009 13.5283 135.427 11.7119 136.263 10.1001C137.121 8.46281 138.285 7.19644 139.753 6.30103C141.244 5.38004 142.916 4.91954 144.768 4.91954C146.508 4.91954 148.089 5.34166 149.513 6.18591C150.936 7.00457 152.066 8.20698 152.902 9.79313C153.76 11.3537 154.189 13.2085 154.189 15.3575L140.702 18.3123C141.086 19.3356 141.685 20.1031 142.498 20.6148C143.334 21.1265 144.351 21.3823 145.548 21.3823ZM144.768 9.44776C143.436 9.44776 142.351 9.93384 141.515 10.906C140.679 11.8782 140.239 13.2213 140.194 14.9353L149.072 12.9782C148.824 11.9037 148.315 11.0467 147.547 10.4071C146.779 9.76755 145.853 9.44776 144.768 9.44776Z" fill="#0A51BA"/>
</svg>
