<svg width="70" height="60" viewBox="0 0 70 60" fill="none" xmlns="http://www.w3.org/2000/svg">
<rect width="70" height="60" rx="6" fill="#0A51BA"/>
<path d="M48.1699 9.45402C49.2332 9.15483 50.3377 9.77425 50.6369 10.8375L55.0627 26.5664C56.2335 30.727 56.1335 34.1842 54.7629 36.9379C53.3842 39.6631 50.8704 41.5391 47.2214 42.5658C45.4095 43.0757 43.7021 43.2332 42.0993 43.0384C40.5216 42.8365 39.1275 42.3215 37.9168 41.4936C37.2904 42.8385 36.3567 44.0084 35.1159 45.0034C33.875 45.9984 32.3612 46.7473 30.5744 47.25C26.9254 48.2768 23.8022 47.987 21.2047 46.3806C18.5992 44.7457 16.7111 41.848 15.5403 37.6874L11.1145 21.9585C10.8153 20.8952 11.4347 19.7907 12.498 19.4915L14.7627 18.8543C15.826 18.5551 16.9305 19.1745 17.2297 20.2378L21.5954 35.7529C22.277 38.1752 23.2226 39.8466 24.4321 40.7672C25.6337 41.6592 27.1027 41.8609 28.8391 41.3723C32.3874 40.3739 33.496 37.5094 32.1649 32.7788L27.7992 17.2637C27.5 16.2004 28.1194 15.0959 29.1827 14.7967L31.4474 14.1595C32.5107 13.8603 33.6152 14.4797 33.9144 15.543L38.2801 31.0581C39.6112 35.7887 42.0635 37.6512 45.637 36.6456C49.1099 35.6684 50.1807 32.8146 48.8496 28.084L44.4839 12.5689C44.1847 11.5056 44.8041 10.4011 45.8674 10.1019L48.1699 9.45402Z" fill="white"/>
</svg>
