<svg width="102" height="102" viewBox="0 0 102 102" fill="none" xmlns="http://www.w3.org/2000/svg">
<rect width="102" height="102" rx="51" fill="#DCFFD1"/>
<path fill-rule="evenodd" clip-rule="evenodd" d="M23.5 51C23.5 43.5739 26.3973 36.452 31.5546 31.201C36.7118 25.95 43.7065 23 51 23C58.2935 23 65.2882 25.95 70.4454 31.201C75.6027 36.452 78.5 43.5739 78.5 51C78.5 58.4261 75.6027 65.548 70.4454 70.799C65.2882 76.05 58.2935 79 51 79C43.7065 79 36.7118 76.05 31.5546 70.799C26.3973 65.548 23.5 58.4261 23.5 51ZM49.4307 62.984L65.2633 42.8315L62.4033 40.5019L48.9027 57.6789L39.34 49.5664L36.9933 52.4336L49.4307 62.984Z" fill="#56CB2B"/>
</svg>
