<svg width="103" height="103" viewBox="0 0 103 103" fill="none" xmlns="http://www.w3.org/2000/svg">
<rect x="0.5" y="0.5" width="102" height="102" rx="51" fill="#D1E7FF"/>
<path d="M73.8865 31.7796C75.4529 31.8815 76.1213 33.8207 74.9509 34.8669L53.1567 54.3485C52.2123 55.1929 50.7878 55.1929 49.8432 54.3485L28.049 34.8669C26.8787 33.8207 27.547 31.8815 29.1135 31.7796C34.6153 31.4216 42.9837 30.9927 51.4999 30.9927C60.0163 30.9927 68.3847 31.4216 73.8865 31.7796Z" fill="#2B70CB"/>
<path d="M80.0031 65.2083C79.7734 68.4394 77.1939 71.0049 73.9616 71.2158C68.4606 71.5748 60.0544 72.0076 51.5 72.0076C42.9455 72.0076 34.5394 71.5748 29.0384 71.2158C25.8061 71.0048 23.2266 68.4394 22.9969 65.2083C22.7426 61.6323 22.5 56.8246 22.5 51.5005C22.5 45.6725 22.7907 40.4638 23.0691 36.8118C23.1807 35.3484 24.9208 34.6476 26.015 35.6256L48.5629 55.781C49.4001 56.5294 50.4501 56.9035 51.5 56.9035C52.5499 56.9035 53.6 56.5294 54.4371 55.781L76.985 35.6256C78.0791 34.6475 79.8193 35.3483 79.9309 36.8118C80.2093 40.4638 80.5 45.6725 80.5 51.5006C80.5001 56.8246 80.2574 61.6323 80.0031 65.2083Z" fill="#2B70CB"/>
</svg>
