<svg width="23" height="27" viewBox="0 0 23 27" fill="none" xmlns="http://www.w3.org/2000/svg">
<path fill-rule="evenodd" clip-rule="evenodd" d="M18.4 4.19445H20.7C21.31 4.19445 21.895 4.46184 22.3263 4.9378C22.7577 5.41375 23 6.05928 23 6.73239V23.6519C23 24.325 22.7577 24.9706 22.3263 25.4465C21.895 25.9225 21.31 26.1899 20.7 26.1899H2.3C1.69 26.1899 1.10499 25.9225 0.673654 25.4465C0.242321 24.9706 0 24.325 0 23.6519L0 6.73239C0 6.05928 0.242321 5.41375 0.673654 4.9378C1.10499 4.46184 1.69 4.19445 2.3 4.19445H4.6V0.810547H6.13333V4.19445H16.8667V0.810547H18.4V4.19445ZM9.2 14.3462H4.6V12.6542H9.2V14.3462ZM18.4 12.6542H13.8V14.3462H18.4V12.6542ZM9.2 19.422H4.6V17.7301H9.2V19.422ZM13.8 19.422H18.4V17.7301H13.8V19.422Z" fill="#6F50C0"/>
</svg>
