<svg width="21" height="26" viewBox="0 0 21 26" fill="none" xmlns="http://www.w3.org/2000/svg">
<path fill-rule="evenodd" clip-rule="evenodd" d="M16.75 0.866211C17.7446 0.866211 18.6984 1.2613 19.4017 1.96456C20.1049 2.66782 20.5 3.62165 20.5 4.61621V24.6162C20.4999 24.8516 20.4332 25.0823 20.3078 25.2815C20.1823 25.4807 20.0032 25.6405 19.7909 25.7423C19.5787 25.8442 19.342 25.8841 19.1081 25.8573C18.8741 25.8306 18.6525 25.7384 18.4688 25.5912L16.125 23.7162L13.7812 25.5912C13.5411 25.7836 13.2385 25.8806 12.9313 25.8638C12.6241 25.847 12.3339 25.7174 12.1163 25.5L10.5 23.8837L8.88375 25.5C8.66625 25.7176 8.37614 25.8474 8.06893 25.8644C7.76172 25.8815 7.45901 25.7847 7.21875 25.5925L4.875 23.7162L2.53125 25.5912C2.34747 25.7384 2.12586 25.8306 1.89195 25.8573C1.65804 25.8841 1.42133 25.8442 1.20909 25.7423C0.996838 25.6405 0.817676 25.4807 0.692228 25.2815C0.56678 25.0823 0.500147 24.8516 0.5 24.6162V4.61621C0.5 3.62165 0.895088 2.66782 1.59835 1.96456C2.30161 1.2613 3.25544 0.866211 4.25 0.866211H16.75ZM10.5 13.3662H6.75C6.41848 13.3662 6.10054 13.4979 5.86612 13.7323C5.6317 13.9667 5.5 14.2847 5.5 14.6162C5.5 14.9477 5.6317 15.2657 5.86612 15.5001C6.10054 15.7345 6.41848 15.8662 6.75 15.8662H10.5C10.8315 15.8662 11.1495 15.7345 11.3839 15.5001C11.6183 15.2657 11.75 14.9477 11.75 14.6162C11.75 14.2847 11.6183 13.9667 11.3839 13.7323C11.1495 13.4979 10.8315 13.3662 10.5 13.3662ZM14.25 8.36621H6.75C6.4314 8.36656 6.12496 8.48856 5.89329 8.70727C5.66162 8.92598 5.52221 9.2249 5.50353 9.54295C5.48486 9.86101 5.58834 10.1742 5.79283 10.4185C5.99732 10.6628 6.28738 10.8198 6.60375 10.8575L6.75 10.8662H14.25C14.5686 10.8659 14.875 10.7439 15.1067 10.5252C15.3384 10.3064 15.4778 10.0075 15.4965 9.68947C15.5151 9.37142 15.4117 9.05824 15.2072 8.81392C15.0027 8.5696 14.7126 8.41259 14.3962 8.37496L14.25 8.36621Z" fill="#F0AC5C"/>
</svg>
