<svg width="22" height="22" viewBox="0 0 22 22" fill="none" xmlns="http://www.w3.org/2000/svg">
<path d="M13 20.75H9C5.229 20.75 3.343 20.75 2.172 19.578C1.001 18.406 1 16.521 1 12.75V10.75C1 6.979 1 5.093 2.172 3.922C3.344 2.751 5.229 2.75 9 2.75H13C16.771 2.75 18.657 2.75 19.828 3.922C20.999 5.094 21 6.979 21 10.75V12.75C21 16.521 21 18.407 19.828 19.578C19.175 20.232 18.3 20.521 17 20.648M6 2.75V1.25M16 2.75V1.25M20.5 7.75H9.75M1 7.75H4.875" stroke="#3774CF" stroke-width="1.5" stroke-linecap="round"/>
<path d="M17 15.75C17 16.0152 16.8946 16.2696 16.7071 16.4571C16.5196 16.6446 16.2652 16.75 16 16.75C15.7348 16.75 15.4804 16.6446 15.2929 16.4571C15.1054 16.2696 15 16.0152 15 15.75C15 15.4848 15.1054 15.2304 15.2929 15.0429C15.4804 14.8554 15.7348 14.75 16 14.75C16.2652 14.75 16.5196 14.8554 16.7071 15.0429C16.8946 15.2304 17 15.4848 17 15.75ZM17 11.75C17 12.0152 16.8946 12.2696 16.7071 12.4571C16.5196 12.6446 16.2652 12.75 16 12.75C15.7348 12.75 15.4804 12.6446 15.2929 12.4571C15.1054 12.2696 15 12.0152 15 11.75C15 11.4848 15.1054 11.2304 15.2929 11.0429C15.4804 10.8554 15.7348 10.75 16 10.75C16.2652 10.75 16.5196 10.8554 16.7071 11.0429C16.8946 11.2304 17 11.4848 17 11.75ZM12 15.75C12 16.0152 11.8946 16.2696 11.7071 16.4571C11.5196 16.6446 11.2652 16.75 11 16.75C10.7348 16.75 10.4804 16.6446 10.2929 16.4571C10.1054 16.2696 10 16.0152 10 15.75C10 15.4848 10.1054 15.2304 10.2929 15.0429C10.4804 14.8554 10.7348 14.75 11 14.75C11.2652 14.75 11.5196 14.8554 11.7071 15.0429C11.8946 15.2304 12 15.4848 12 15.75ZM12 11.75C12 12.0152 11.8946 12.2696 11.7071 12.4571C11.5196 12.6446 11.2652 12.75 11 12.75C10.7348 12.75 10.4804 12.6446 10.2929 12.4571C10.1054 12.2696 10 12.0152 10 11.75C10 11.4848 10.1054 11.2304 10.2929 11.0429C10.4804 10.8554 10.7348 10.75 11 10.75C11.2652 10.75 11.5196 10.8554 11.7071 11.0429C11.8946 11.2304 12 11.4848 12 11.75ZM7 15.75C7 16.0152 6.89464 16.2696 6.70711 16.4571C6.51957 16.6446 6.26522 16.75 6 16.75C5.73478 16.75 5.48043 16.6446 5.29289 16.4571C5.10536 16.2696 5 16.0152 5 15.75C5 15.4848 5.10536 15.2304 5.29289 15.0429C5.48043 14.8554 5.73478 14.75 6 14.75C6.26522 14.75 6.51957 14.8554 6.70711 15.0429C6.89464 15.2304 7 15.4848 7 15.75ZM7 11.75C7 12.0152 6.89464 12.2696 6.70711 12.4571C6.51957 12.6446 6.26522 12.75 6 12.75C5.73478 12.75 5.48043 12.6446 5.29289 12.4571C5.10536 12.2696 5 12.0152 5 11.75C5 11.4848 5.10536 11.2304 5.29289 11.0429C5.48043 10.8554 5.73478 10.75 6 10.75C6.26522 10.75 6.51957 10.8554 6.70711 11.0429C6.89464 11.2304 7 11.4848 7 11.75Z" fill="#3774CF"/>
</svg>
