<svg width="18" height="23" viewBox="0 0 18 23" fill="none" xmlns="http://www.w3.org/2000/svg">
<path d="M8 10.3057H5M11 6.30566H5M1 17.9517V7.35966C1 4.50566 1 3.07966 1.879 2.19266C2.757 1.30566 4.172 1.30566 7 1.30566H11C13.828 1.30566 15.243 1.30566 16.121 2.19266C17 3.07866 17 4.50566 17 7.35966V17.9517C17 19.4627 17 20.2187 16.538 20.5167C15.783 21.0027 14.616 19.9827 14.029 19.6127C13.544 19.3067 13.302 19.1547 13.032 19.1457C12.742 19.1357 12.495 19.2827 11.971 19.6127L10.06 20.8177C9.544 21.1427 9.287 21.3057 9 21.3057C8.713 21.3057 8.456 21.1427 7.94 20.8177L6.03 19.6127C5.544 19.3067 5.302 19.1547 5.033 19.1457C4.742 19.1357 4.495 19.2827 3.971 19.6127C3.384 19.9827 2.217 21.0027 1.461 20.5167C1 20.2187 1 19.4637 1 17.9517Z" stroke="#7C7C7C" stroke-width="1.5" stroke-linecap="round" stroke-linejoin="round"/>
</svg>
