<svg width="33" height="34" viewBox="0 0 33 34" fill="none" xmlns="http://www.w3.org/2000/svg">
<path d="M11.5276 32.2109H6.44531C3.59758 32.2109 1.28906 29.9024 1.28906 27.0547V6.94531C1.28906 4.09758 3.59758 1.78906 6.44531 1.78906H18.8203C21.668 1.78906 23.9766 4.09758 23.9766 6.94531" stroke="#3C503C" stroke-width="2.31" stroke-miterlimit="10" stroke-linecap="round" stroke-linejoin="round"/>
<path d="M28.3777 12.5989L30.9558 15.177C31.4223 15.6435 31.7109 16.2881 31.7109 17V29.6328C31.7109 31.0566 30.5566 32.2109 29.1328 32.2109H18.8203C17.3965 32.2109 16.2422 31.0566 16.2422 29.6328V14.4219C16.2422 12.998 17.3965 11.8438 18.8203 11.8438H26.5547C27.2666 11.8438 27.9111 12.1323 28.3777 12.5989Z" stroke="#3C503C" stroke-width="2.31" stroke-miterlimit="10" stroke-linecap="round" stroke-linejoin="round"/>
<path d="M18.8203 1.78906L16.9548 5.52019C16.518 6.39359 15.6254 6.94531 14.6488 6.94531H10.6168C9.64032 6.94531 8.74764 6.39359 8.31091 5.52019L6.44531 1.78906" stroke="#3C503C" stroke-width="2.31" stroke-miterlimit="10" stroke-linecap="round" stroke-linejoin="round"/>
<path d="M21.3984 19.5781H26.5547" stroke="#3C503C" stroke-width="2.31" stroke-miterlimit="10" stroke-linecap="round" stroke-linejoin="round"/>
<path d="M21.3984 24.7344H26.5547" stroke="#3C503C" stroke-width="2.31" stroke-miterlimit="10" stroke-linecap="round" stroke-linejoin="round"/>
</svg>
