<svg width="18" height="22" viewBox="0 0 18 22" fill="none" xmlns="http://www.w3.org/2000/svg">
<path d="M17 21.0166V18.0166C17 15.1886 17 13.7736 16.121 12.8956C15.243 12.0166 13.828 12.0166 11 12.0166H7C4.172 12.0166 2.757 12.0166 1.879 12.8956C1 13.7736 1 15.1886 1 18.0166C1 18.9486 1 19.4146 1.152 19.7816C1.25251 20.0244 1.3999 20.245 1.58572 20.4309C1.77155 20.6167 1.99218 20.7641 2.235 20.8646C2.602 21.0166 3.068 21.0166 4 21.0166V12.5166M6.5 12.0166L9.5 21.0166" stroke="#7C7C7C" stroke-linecap="round" stroke-linejoin="round"/>
<path d="M9 18.0166H11.5C11.8978 18.0166 12.2794 18.1746 12.5607 18.4559C12.842 18.7372 13 19.1188 13 19.5166C13 19.9144 12.842 20.296 12.5607 20.5773C12.2794 20.8586 11.8978 21.0166 11.5 21.0166H9.5M12.5 5.5166V4.5166C12.5 4.05698 12.4095 3.60185 12.2336 3.17721C12.0577 2.75257 11.7999 2.36673 11.4749 2.04173C11.1499 1.71672 10.764 1.45891 10.3394 1.28302C9.91475 1.10713 9.45963 1.0166 9 1.0166C8.54037 1.0166 8.08525 1.10713 7.66061 1.28302C7.23597 1.45891 6.85013 1.71672 6.52513 2.04173C6.20012 2.36673 5.94231 2.75257 5.76642 3.17721C5.59053 3.60185 5.5 4.05698 5.5 4.5166V5.5166C5.5 5.97623 5.59053 6.43135 5.76642 6.85599C5.94231 7.28063 6.20012 7.66647 6.52513 7.99148C6.85013 8.31648 7.23597 8.57429 7.66061 8.75018C8.08525 8.92607 8.54037 9.0166 9 9.0166C9.45963 9.0166 9.91475 8.92607 10.3394 8.75018C10.764 8.57429 11.1499 8.31648 11.4749 7.99148C11.7999 7.66647 12.0577 7.28063 12.2336 6.85599C12.4095 6.43135 12.5 5.97623 12.5 5.5166Z" stroke="#7C7C7C" stroke-linecap="round" stroke-linejoin="round"/>
</svg>
