<svg width="22" height="22" viewBox="0 0 22 22" fill="none" xmlns="http://www.w3.org/2000/svg">
<path d="M16.5 15.5848H5.5V16.5H16.5V15.5848ZM4.58477 0.915234H12.8348V5.5H17.4195V7.33477H18.3348V4.58477L13.75 0H3.66523V7.33477H4.58047V0.915234H4.58477ZM19.25 8.25H2.75C0.915234 8.25 0 9.16523 0 11V16.5H3.66523V22H18.3305V16.5H22V11C22 9.16523 21.0848 8.25 19.25 8.25ZM3.66523 11.9152H1.83477V10.0805H3.66953V11.9152H3.66523ZM17.4152 21.0848H4.58477V14.6652H17.4195V21.0848H17.4152ZM16.5 17.4152H5.5V18.3305H16.5V17.4152ZM16.5 19.25H5.5V20.1652H16.5V19.25Z" fill="white"/>
</svg>
