<svg width="21" height="23" viewBox="0 0 21 23" fill="none" xmlns="http://www.w3.org/2000/svg">
<path d="M10.4277 14.3057C12.0846 14.3057 13.4277 12.9625 13.4277 11.3057C13.4277 9.64881 12.0846 8.30566 10.4277 8.30566C8.77088 8.30566 7.42773 9.64881 7.42773 11.3057C7.42773 12.9625 8.77088 14.3057 10.4277 14.3057Z" stroke="#7C7C7C" stroke-width="1.5"/>
<path d="M12.1932 1.45766C11.8262 1.30566 11.3602 1.30566 10.4282 1.30566C9.49618 1.30566 9.03018 1.30566 8.66318 1.45766C8.42037 1.55818 8.19974 1.70556 8.01391 1.89139C7.82808 2.07722 7.6807 2.29784 7.58019 2.54066C7.48819 2.76366 7.45118 3.02466 7.43718 3.40366C7.43067 3.67759 7.35479 3.94539 7.21663 4.18202C7.07846 4.41864 6.88254 4.61636 6.64718 4.75666C6.40799 4.89044 6.13877 4.96134 5.86472 4.96274C5.59066 4.96414 5.32073 4.89599 5.08018 4.76466C4.74418 4.58666 4.50118 4.48866 4.26018 4.45666C3.7345 4.38753 3.20288 4.52997 2.78219 4.85266C2.46819 5.09566 2.23418 5.49866 1.76818 6.30566C1.30218 7.11266 1.06818 7.51566 1.01718 7.91066C0.98282 8.17112 1.0001 8.43579 1.06805 8.68956C1.136 8.94333 1.25328 9.18123 1.41318 9.38966C1.56118 9.58166 1.76818 9.74266 2.08918 9.94466C2.56218 10.2417 2.86619 10.7477 2.86619 11.3057C2.86619 11.8637 2.56218 12.3697 2.08918 12.6657C1.76818 12.8687 1.56018 13.0297 1.41318 13.2217C1.25328 13.4301 1.136 13.668 1.06805 13.9218C1.0001 14.1755 0.98282 14.4402 1.01718 14.7007C1.06918 15.0947 1.30218 15.4987 1.76718 16.3057C2.23418 17.1127 2.46719 17.5157 2.78219 17.7587C2.99062 17.9186 3.22852 18.0359 3.48229 18.1038C3.73606 18.1717 4.00073 18.189 4.26119 18.1547C4.50119 18.1227 4.74418 18.0247 5.08018 17.8467C5.32073 17.7153 5.59066 17.6472 5.86472 17.6486C6.13877 17.65 6.40799 17.7209 6.64718 17.8547C7.13018 18.1347 7.41718 18.6497 7.43718 19.2077C7.45118 19.5877 7.48719 19.8477 7.58019 20.0707C7.6807 20.3135 7.82808 20.5341 8.01391 20.7199C8.19974 20.9058 8.42037 21.0532 8.66318 21.1537C9.03018 21.3057 9.49618 21.3057 10.4282 21.3057C11.3602 21.3057 11.8262 21.3057 12.1932 21.1537C12.436 21.0532 12.6566 20.9058 12.8425 20.7199C13.0283 20.5341 13.1757 20.3135 13.2762 20.0707C13.3682 19.8477 13.4052 19.5877 13.4192 19.2077C13.4392 18.6497 13.7262 18.1337 14.2092 17.8547C14.4484 17.7209 14.7176 17.65 14.9917 17.6486C15.2657 17.6472 15.5356 17.7153 15.7762 17.8467C16.1122 18.0247 16.3552 18.1227 16.5952 18.1547C16.8556 18.189 17.1203 18.1717 17.3741 18.1038C17.6278 18.0359 17.8657 17.9186 18.0742 17.7587C18.3892 17.5167 18.6222 17.1127 19.0882 16.3057C19.5542 15.4987 19.7882 15.0957 19.8392 14.7007C19.8735 14.4402 19.8563 14.1755 19.7883 13.9218C19.7204 13.668 19.6031 13.4301 19.4432 13.2217C19.2952 13.0297 19.0882 12.8687 18.7672 12.6667C18.5331 12.5241 18.339 12.3244 18.2032 12.0864C18.0673 11.8483 17.994 11.5797 17.9902 11.3057C17.9902 10.7477 18.2942 10.2417 18.7672 9.94566C19.0882 9.74266 19.2962 9.58166 19.4432 9.38966C19.6031 9.18123 19.7204 8.94333 19.7883 8.68956C19.8563 8.43579 19.8735 8.17112 19.8392 7.91066C19.7872 7.51666 19.5542 7.11266 19.0892 6.30566C18.6222 5.49866 18.3892 5.09566 18.0742 4.85266C17.8657 4.69275 17.6278 4.57548 17.3741 4.50753C17.1203 4.43958 16.8556 4.4223 16.5952 4.45666C16.3552 4.48866 16.1122 4.58666 15.7752 4.76466C15.5348 4.89581 15.265 4.96386 14.9912 4.96246C14.7173 4.96106 14.4483 4.89026 14.2092 4.75666C13.9738 4.61636 13.7779 4.41864 13.6397 4.18202C13.5016 3.94539 13.4257 3.67759 13.4192 3.40366C13.4052 3.02366 13.3692 2.76366 13.2762 2.54066C13.1757 2.29784 13.0283 2.07722 12.8425 1.89139C12.6566 1.70556 12.436 1.55818 12.1932 1.45766Z" stroke="#7C7C7C" stroke-width="1.5"/>
</svg>
