<svg width="23" height="20" viewBox="0 0 23 20" fill="none" xmlns="http://www.w3.org/2000/svg">
<path d="M22.4153 18.7875H20.661V7.67729C20.661 7.31543 20.5173 6.96839 20.2614 6.71251C20.0055 6.45663 19.6585 6.31289 19.2966 6.31289H12.8644V1.44C12.8643 1.19305 12.7972 0.950762 12.6702 0.738964C12.5432 0.527167 12.3611 0.353805 12.1433 0.237365C11.9256 0.120924 11.6803 0.065772 11.4336 0.0777884C11.187 0.0898049 10.9482 0.16854 10.7428 0.305597L2.94614 5.50301C2.75931 5.62767 2.60613 5.79652 2.50022 5.99458C2.3943 6.19264 2.33892 6.41379 2.33898 6.63839V18.7875H0.584746C0.429662 18.7875 0.280929 18.8491 0.171268 18.9587C0.061607 19.0684 0 19.2171 0 19.3722C0 19.5273 0.061607 19.676 0.171268 19.7857C0.280929 19.8953 0.429662 19.957 0.584746 19.957H22.4153C22.5703 19.957 22.7191 19.8953 22.8287 19.7857C22.9384 19.676 23 19.5273 23 19.3722C23 19.2171 22.9384 19.0684 22.8287 18.9587C22.7191 18.8491 22.5703 18.7875 22.4153 18.7875ZM19.2966 7.48238C19.3483 7.48238 19.3979 7.50291 19.4344 7.53947C19.471 7.57602 19.4915 7.6256 19.4915 7.67729V18.7875H12.8644V7.48238H19.2966ZM3.50847 6.63839C3.50853 6.60638 3.51648 6.57487 3.53161 6.54665C3.54673 6.51844 3.56858 6.49438 3.59521 6.47661L11.3918 1.27822C11.4211 1.25866 11.4552 1.24741 11.4904 1.24568C11.5257 1.24396 11.5607 1.25181 11.5918 1.26841C11.6229 1.28501 11.6489 1.30974 11.6671 1.33995C11.6852 1.37017 11.6948 1.40475 11.6949 1.44V18.7875H3.50847V6.63839ZM9.74576 9.23661V10.7959C9.74576 10.951 9.68416 11.0998 9.57449 11.2094C9.46483 11.3191 9.3161 11.3807 9.16102 11.3807C9.00593 11.3807 8.8572 11.3191 8.74754 11.2094C8.63788 11.0998 8.57627 10.951 8.57627 10.7959V9.23661C8.57627 9.08153 8.63788 8.9328 8.74754 8.82314C8.8572 8.71348 9.00593 8.65187 9.16102 8.65187C9.3161 8.65187 9.46483 8.71348 9.57449 8.82314C9.68416 8.9328 9.74576 9.08153 9.74576 9.23661ZM6.62712 9.23661V10.7959C6.62712 10.951 6.56551 11.0998 6.45585 11.2094C6.34619 11.3191 6.19746 11.3807 6.04237 11.3807C5.88729 11.3807 5.73856 11.3191 5.6289 11.2094C5.51923 11.0998 5.45763 10.951 5.45763 10.7959V9.23661C5.45763 9.08153 5.51923 8.9328 5.6289 8.82314C5.73856 8.71348 5.88729 8.65187 6.04237 8.65187C6.19746 8.65187 6.34619 8.71348 6.45585 8.82314C6.56551 8.9328 6.62712 9.08153 6.62712 9.23661ZM6.62712 14.6942V16.2536C6.62712 16.4086 6.56551 16.5574 6.45585 16.667C6.34619 16.7767 6.19746 16.8383 6.04237 16.8383C5.88729 16.8383 5.73856 16.7767 5.6289 16.667C5.51923 16.5574 5.45763 16.4086 5.45763 16.2536V14.6942C5.45763 14.5392 5.51923 14.3904 5.6289 14.2808C5.73856 14.1711 5.88729 14.1095 6.04237 14.1095C6.19746 14.1095 6.34619 14.1711 6.45585 14.2808C6.56551 14.3904 6.62712 14.5392 6.62712 14.6942ZM9.74576 14.6942V16.2536C9.74576 16.4086 9.68416 16.5574 9.57449 16.667C9.46483 16.7767 9.3161 16.8383 9.16102 16.8383C9.00593 16.8383 8.8572 16.7767 8.74754 16.667C8.63788 16.5574 8.57627 16.4086 8.57627 16.2536V14.6942C8.57627 14.5392 8.63788 14.3904 8.74754 14.2808C8.8572 14.1711 9.00593 14.1095 9.16102 14.1095C9.3161 14.1095 9.46483 14.1711 9.57449 14.2808C9.68416 14.3904 9.74576 14.5392 9.74576 14.6942Z" fill="#7C7C7C"/>
</svg>
